<?xml version="1.0" encoding="utf-8"?>
<!-- Generator: Adobe Illustrator 16.0.3, SVG Export Plug-In . SVG Version: 6.00 Build 0)  -->
<!DOCTYPE svg PUBLIC "-//W3C//DTD SVG 1.1//EN" "http://www.w3.org/Graphics/SVG/1.1/DTD/svg11.dtd">
<svg version="1.1" id="Ebene_1" xmlns="http://www.w3.org/2000/svg" xmlns:xlink="http://www.w3.org/1999/xlink" x="0px" y="0px"
	 width="800px" height="800px" viewBox="0 0 800 800" enable-background="new 0 0 800 800" xml:space="preserve">
<path fill="#1A1A1A" d="M68.949,118.88c-51.271,58.146-22.471,100.218,6.838,108.117c17.107,4.61,33.847-25.556,38.525-4.916
	c-0.25,75.881-20.543,116.613-31.959,147.644c17.525,37.336,1.867-2.265,15.614,34.232
	C59.14,569.674,150.23,599.301,203.323,619.338c2.059,50.237,54.387,43.63,66.02,42.908c28.269,36.619,48.811,91.188,125.434,94.996
	c43.932,2.185,98.027-18.978,138.885-98.718c61.779,20.892,70.173-42.812,70.173-42.812s148.299-26.481,96.15-208.594
	c1.666-0.055,12.976-1.854,24.408-38.223c-28.148-82.217-27.035-61.521-27.831-161.888c36.575,45.7,73.68-1.343,60.88-52.326
	c-3.236-12.891-20.614-21.52-30.639-34.098c-8.744,6.294,8.093-24.989-2.049-57.791c-8.39-27.137-43.762-37.764-51.33-34.656
	c-12.149-5.291-69.678,3.782-20.912,66.027c-1.665,6.687-88.752,18.095-109.485,13.643c26.134-44.284,9.325-70.669-20.747-87.663
	c-15.399-2.215-44.596,6.894-58.481,2.793c-21.607-6.786-32.422,31.164-50.596,20.841c-5.959-3.396-14.979,3.286-20.498-0.492
	C363.67,34.8,338.18,10.503,311.568,18.432c-14.927,4.422-29.948,7.574-44.235,9.65c-16.122,2.258-16.268,16.041-17.082,31.939
	c-19.757,35.382,31.269,58.369,1.072,47.999c-33.788,3.782-82.115-4.494-91.875-11.382l13.433-19.439l4.555-21.76L159.006,32.75
	l-42.058-1.077L74.233,57.776L68.949,118.88z"/>
<g>
	<path fill="#A99842" d="M199.559,609.684l9.915,1.412c-1.003,38.6,50.831,52.014,63.716,36.772
		c22.336,45.145,47.712,95.104,129.068,104.369l1.304,11.23l-3.528,0.287c-68.43,0.469-112.777-64.4-132.504-99.502
		c-4.313,0.312-7.45,1.689-11.234,1.685c-40.333-0.06-54.336-28.382-57.637-44.993L199.559,609.684z"/>
	<path fill="#A99842" d="M157.208,90.263c30.309,16.544,73.157,17.393,91.903,11.262c-23.08-59.555,10.332-85.549,53.175-89.014
		c21.261-1.718,53.303,2.73,96.393,29.096l8.979,0.58l0.595,14.656l-10.393,0.598C342.97,8.147,229.64,12.515,257.818,92.159
		c0.409,2.502,20.523,19.29,35.665-2.588c1.635,0.347-0.109-20.487,2.911-22.744c1.604-1.198,9.721,12.682,8.758,13.908
		c0.764,13.197-4.797,21.538-18.689,27.623c0.154,0.298-20.259,2.918-20.103,3.218c-87.984,20.909-118.636-14.456-123.114-19.512
		L157.208,90.263z"/>
	<path fill="#C2AD4B" d="M155.188,92.112c24.452,19.698,79.914,17.844,98.66,11.713c-28.155-53.525,4.417-84.801,47.767-89.014
		c21.232-2.063,52.4,4.532,95.493,30.897l12.978,0.041l-0.599,8.377l-11.989,0.025c-37.3-31.52-83.462-39.188-114.696-27.951
		c-25.95,9.335-40.57,38.066-27.81,62.208c2.576,6.52,5.162,13.371,10.697,20.563c-84.831,17.756-113.681-12.255-118.159-17.312
		L155.188,92.112z"/>
	<path fill="#D0B847" d="M152.84,92.596c24.452,19.698,80.211,20.815,103.416,12.307c-7.458-11.354-10.645-21.487-12-30.942
		c-4.9-34.165,24.507-55.463,56.201-57.478c21.1-1.341,54.172,5.434,96.697,31.214c0.376,0.228,11.518-0.691,11.896-0.459
		l-11.678,5.737c-37.721-30.341-84.984-39.327-116.4-28.603c-26.795,9.146-39.217,40.846-29.89,63.694
		c2.674,6.549,4.729,14.999,15.507,19.207c-80.67,16.566-112.471-10.667-116.949-15.723L152.84,92.596z"/>
	<path fill="#E6CC54" d="M152.669,92.767c24.452,19.698,81.399,21.41,104.604,12.902c0.525-0.144,1.519-0.485,1.321-0.891
		c-26.364-54.157,1.527-84.679,41.691-87.23c21.287-1.353,52.585,4.215,96.681,31.156l11.088,0.363l0.956,3.336l-11.809-0.401
		c-37.434-30.054-84.176-38.023-116.104-28.941c-30.063,8.552-39.218,43.522-30.484,65.477c2.613,6.574,6.458,10.494,11.992,17.686
		c-5.813,1.263-11.585,2.864-16.922,3.64c-62.176,9.038-92.091-13.483-96.216-18.14L152.669,92.767z"/>
	<path opacity="0.98" fill="#AC9940" d="M65.947,117.742c-3.885-20.308-3.813-49.105,8.405-67.915
		c10.602-12.924,22.036-25.157,37.286-27.738c12.401-2.035,18.39-5.239,25.702-2.941c8.179,2.569,5.886-1.197,23.34,6.724
		c7.999,3.63,12.712,4.686,19.173,28.476c0,2.971,2.9,23.502-16.471,33.797c-7.206,3.83-19.186,3.395-26.009-3.509
		c-6.558-6.634-5.284-19.151-4.747-18.363c3.151-7.892,29.134,25.953,33.097-4.499c-0.027-41.585-105.205-45.354-80.83,60.425
		c-3.667,2.827-35.984,22.482-36.462,51.906c-0.015,0.848,5.008,25.653,5.914,22.998c8.066,14.609,22.763,25.154,40.457,11.086
		c11.613-9.233-19.668-19.932-12.366-32.107c12.347-7.083,23.232,5.993,23.617,5.418c-0.371,0.87,19.286,24.21,16.796,60.987
		c1.878,7.998-16.417,82.123-36.467,126.291c-0.806,1.777,14.786,27.06,19.829,37.119c1.114,2.221-61.388,153.534,101.24,203.598
		c5.173,12.285-7.148,8.777-7.862,8.621c-1.65-0.36-71.903-6.291-103.067-82.78c-23.405-57.442-3.521-129.777-3.72-129.8
		c-1.279-2.996-18.678-36.466-19.133-37.54c45.966-113.805,38.589-172.846,34.084-157.491
		c-9.491,16.054-20.787,18.399-29.607,18.143c-18.501-0.883-30.667-17.098-30.729-17.198c-40.54-64.927,21.503-96.373,18.53-93.705
		L65.947,117.742z"/>
	<path fill="#AC9940" fill-opacity="0.9804" stroke="#AA8800" stroke-width="1.1129" d="M148.528,90.277
		c-7.825-0.284-16.92-11.041-16.92-19.51c0-8.468,7.589-14.895,16.772-13.821"/>
	<path fill="#C2AD4B" d="M135.293,78.095c7.136,9.884,18.75,9.917,23.802,8.53c6.109-1.678,12.024-6.387,13.825-8.444
		c6.173-7.051,8.677-21.589,3.417-33.179c-2.623-15.317-30.232-33.348-63.881-23.318c-24.112,8.473-55.351,35.065-43.808,96.247
		c12.356,2.626,0.06,0.125,12.521,2.751c-21.071-80.018,45.776-103.387,75.049-82.968c12.719,10.343,15.904,26.412,7.893,37.976
		c-5.55,4.553-22.244,3.325-28.817,2.407V78.095L135.293,78.095z"/>
	<path fill="#947C00" d="M143.348,81.695c-2.687-2.329,12.983-0.438-11.321-7.375c-1.941-2.441-0.216-0.903-0.872-2.989
		c7.634-18.755,18.238-16.156,24.832-14.824C169.324,59.2,167.598,90.498,143.348,81.695L143.348,81.695z"/>
	<path opacity="0.98" fill="#AC9940" d="M161.335,66.027c-13.54,10.711-13.436,14.403-5.039,13.646
		c-2.516,1.276,2.764-0.016,9.489-8.34c-2.105,17.472-35.191,15.96-33.828-1.176c0.487-10.103,4.955-11.447,12.179-14.594
		c5.144-2.242,12.411,0.314,15.571,4.269c1.342,1.679,2.223,3.879,2.294,6.027c0.066,1.998-0.661,4.063-1.756,5.736
		c-1.143,1.746-2.765,3.434-4.75,4.075c-2.074,0.67-4.746,0.724-6.515-0.549c-1.646-1.185-2.477-3.561-2.407-5.588
		c0.062-1.845,2.531-4.927,2.531-4.927s-3.999,0.766-5.167,2.234c-1.199,1.507-1.575,3.079-1.327,4.989
		c0.29,2.238,1.258,4.83,3.113,6.114c1.898,1.312,10.716-2.599,13.169-2.789c0.669-0.052-4.986,4.355-4.338,4.183
		c5.915-1.563-0.757-4.646-0.281-10.493c0.265-3.25,5.148-3.133,3.286-5.81c-1.527-2.196-0.674-4.073-3.172-5.029
		c-4.322-1.656-9.107-1.414-12.42,0.438c-6.473,4.552-2.432,8.721-7.794,10.898c2.551-0.783,2.756-4.896,14.068-12.027
		C160.081,55.248,159.209,56.645,161.335,66.027L161.335,66.027z"/>
	<path fill="none" stroke="#806600" stroke-width="1.1131" d="M179.906,61.645c-0.007,3.52-2.254,11.396-2.886,12.851
		c-4.49,10.323-11.817,14.22-22.007,15.795c-12.919,1.926-23.593-7.013-23.532-18.337c0.131-0.783,0.146-3.246,0.275-4.029
		c6.869-18.565,19.768-13.938,25.608-4.797c7.489,11.094-3.457,16.633-8.332,13.673c-1.855-1.126-2.881-3.433-1.767-7.042
		c-1.486,5.652,2.334,8.735,6.367,7.757c4.133-1.737,7.278-3.187,5.816-10.251c-0.737-2.628-10.715,0.522-13.409-1.727
		c-4.052-3.561-3.408-5.284-5.68-9.247c-5.227,2.369-8.482,9.285-8.854,15.275"/>
	<path opacity="0.98" fill="#B9A33F" d="M150.833,53.021c9.053,0.345,12.566,11.159,10.04,17.771
		c-2.02,5.283-6.848,9.344-12.201,9.119c-7.326-0.592-12.938-3.913-12.262-14.431C136.818,59.153,142.474,50.348,150.833,53.021
		L150.833,53.021z"/>
	<path opacity="0.98" fill="#D1B948" d="M160.282,69.472c3.032-6.274-1.381-11.609-6.907-13.721
		c-5.527-2.112-11.207,0.633-13.319,6.16c-2.111,5.527,0.634,11.667,6.16,13.779C151.742,77.8,157.707,74.798,160.282,69.472
		L160.282,69.472z"/>
	<path opacity="0.98" fill="none" stroke="#806600" stroke-width="0.9014" d="M136.56,58.998
		c10.674-11.739,24.638-4.392,25.616,5.978c0.403,4.274-1.238,10.957-8.901,14.975"/>
	<path opacity="0.98" fill="none" stroke="#806600" stroke-width="1.1129" d="M165.149,67.265
		c-0.798,4.79-2.908,8.999-6.643,10.894c-0.938,0.475-2.607,1.449-5.105,1.607"/>
	<path fill="#D0B847" d="M151.815,85.723c0,0,22.425,2.218,25.046-24.917c1.003-23.738-16.295-34.527-32.367-38.107
		c-41.249-8.164-73.878,23.617-76.843,65.436c-0.119,1.668,2.369,28.146,2.343,29.845c8.91,2.135-0.037,0.329,9.136,1.814
		c-1.203-3.93-2.257-11.623-2.973-19.397c-0.727-10.882-0.342-21.813,2.138-31.659c22.676-61.484,100.213-46.346,92.27-0.631
		c-0.359,2.069-2.938,6.755-5.594,10.581C163.769,80.417,159.857,83.588,151.815,85.723L151.815,85.723z"/>
	<path fill="#E6CC54" d="M164.551,81.739c0,0,16.091-10.358,8.246-36.804c-5.716-15.933-29.497-24.019-48.445-21.958
		c-21.387,5.075-25.188,9.553-31.836,15.246c-11.066,9.733-16.104,20.596-19.469,29.494c-2.161,7.318-5.477,21.686-1.521,50.574
		c7.436,1.621-1.382,0.182,6.526,1.521c-3.108-16.174-5.146-32.374-1.502-50.113c3.178-10.214,10.729-25.012,29.143-36.195
		c7.495-4.417,16.825-6.691,25.489-7.042c10.816,0.184,18.882,2.258,26.944,7.501C169.649,41.515,180.793,60.762,164.551,81.739
		L164.551,81.739z"/>
	<path opacity="0.98" fill="#F6E078" d="M171.568,47.955c-5.103-17.21-24.073-25.73-43.47-24.337
		c-9.764,0.701-19.636,4.466-27.9,9.781c-12.912,8.743-30.311,31.964-28.31,49.165c13.801-67.06,83.291-69.386,99.681-34.61
		L171.568,47.955z"/>
	<path fill="none" stroke="#806600" stroke-width="1.1131" d="M409.064,42.589c-0.6-0.421-9.965,0.307-10.583-0.111
		c-16.853-11.399-40.651-21.545-68.579-27.615c-55.811-12.129-108.381,18.437-79.994,86.78c-27.623,6.702-67.279,3.987-90.973-9.659
		 M180.096,65.367c0.049-0.562,0.086-1.118,0.115-1.669C183.659-3.143,42.329,4.65,66.328,119.472
		c-74.018,43.745-0.958,158.715,42.941,91.334c7.76,30.807-6.063,84.24-35.576,160.024c19.242,36.334,19.381,37.301,19.381,37.301
		c-43.746,181.925,97.473,213.845,105.708,212.507c2.942,41.25,61.5,51.39,69.5,42.784
		c48.716,96.415,121.995,106.702,154.632,97.659"/>
	<path fill="none" stroke="#806600" stroke-width="1.1133" d="M409.462,57.105c-0.556-0.391-11.597,0.077-12.168-0.321
		c-1.009-0.701-3.329-2.129-4.382-2.845c-16.501-11.225-38.475-23.913-65.179-27.458c-31.722-4.212-59.1,2.201-69.088,22.486
		c-7.103,16.049-6.236,27.05-3.438,36.064c0.837,2.617,1.54,4.825,2.948,6.938 M266.986,111.549
		c-42.467,10.711-97.951,9.298-126.46-21.557 M164.068,74.112c7.794-20.299-11.503-39.708-35.308-37.019
		c-27.271,1.442-59.785,27.316-43.574,87.625c-14.546,10.635-28.012,23.361-33.09,36.019
		c-13.881,34.601,22.432,88.418,58.619,31.418c19.865,32.082,19.63,66.089-23.898,179.449
		c19.242,36.333,20.018,36.664,20.018,36.664C54.172,574.909,201.122,611.923,209.36,610.585
		c-0.755,39.516,50.269,53.505,64.402,37.688c25.536,66.736,76.801,97.867,117.135,103.002c14.473,1.843,27.987-0.563,37.95-2.717"
		/>
	<path opacity="0.98" fill="#C2AD4B" d="M110.361,196.993c-0.371,0.869,10.933,14.031,10.244,50.359
		c-1.726,15.882-15.742,72.211-37.143,123.813c-0.806,1.776,15.462,27.51,20.506,37.568c-1.116,3.814-58.843,157.805,101.69,204.724
		c-3.782,6.857-4.156,4.651-3.513,5.319c-1.65-0.359-73.193-10.433-104.04-81.823c-23.405-57.442-1.942-128.782-2.143-128.808
		c-1.278-2.994-18.901-36.016-19.358-37.087c51.678-135.122,33.454-154.147,31.766-162.686c0,0,1.893-5.331,1.993-11.387
		L110.361,196.993z"/>
	<path opacity="0.98" fill="#D0B847" d="M110.347,199.17c-0.37,0.869,9.111,12.34,9.203,48.148
		c-1.726,15.881-16.003,72.601-37.403,124.203c-0.806,1.776,15.462,27.12,20.505,37.178c-1.114,3.814-59.052,157.506,101.95,205.378
		c-2.026,4.036,0.008-0.009-2.211,3.889c-1.651-0.359-71.502-10.822-103.26-81.434c-23.405-57.442-1.813-128.393-2.013-128.415
		c-1.279-2.995-18.901-36.017-19.359-37.088c51.679-135.122,32.674-156.353,30.984-164.892c1.439-6.597,1.272-6.574,1.603-6.965
		L110.347,199.17z"/>
	<path opacity="0.98" fill="#E6CC54" d="M110.475,200.792c-0.371,0.87,8.071,10.78,8.162,46.587
		c-1.726,15.882-16.392,72.861-37.792,124.462c1.015,2.297,15.462,26.73,20.506,36.789c-1.117,3.814-58.012,158.686,102.989,206.545
		c-2.026,4.036,1.438-2.089-0.78,1.808c-1.65-0.359-71.634-10.042-103.39-80.653c-23.405-57.442-1.812-128.262-2.013-128.287
		c-1.278-2.994-19.032-35.755-19.489-36.829c51.679-135.123,32.284-158.559,30.595-167.097c0,0-0.405,0.525,1.213-3.323
		L110.475,200.792L110.475,200.792z"/>
	<path opacity="0.98" fill="#F6E078" d="M80.434,370.067c4.04-11.663,11.314-30.987,15.416-43.554
		c5.6-17.148,8.908-30.662,12.902-45.263c5.821-31.756,7.355-37.441,5.376-63.994c-0.085-1.146-0.42-2.292-0.657-3.484
		c9.998,21.168-3.396,68.43-5.875,77.988c-2.566,9.099-6.479,21.346-10.577,33.247C90.599,343.65,85.254,359.943,80.434,370.067
		L80.434,370.067L80.434,370.067z"/>
	<path fill="#C2AD4B" d="M200.683,611.762l6.774,1.171c-1.002,38.599,52.038,53.703,64.923,38.464
		c21.736,50.186,58.962,99.38,127.521,103.323c0.374,0.021,6.63,0.041,7.005,0.062l0.071,6.417
		c-0.128-0.015-2.394,3.566-4.098,3.569c-1.703,0-2.843-3.568-2.97-3.578c-75.872-5.708-111.112-65.188-130.774-100.173
		c-13.781,4.217-24.324,2.07-37.296-3.084c-23.595-9.539-30.212-27.043-31.575-39.741L200.683,611.762z"/>
	<path fill="#D0B847" d="M200.47,613.028l5.083,0.445c-1.003,38.6,53.005,56.12,65.89,40.88
		c23.062,49.737,61.301,97.502,129.37,101.935l0.373,3.807c-76.403-5.328-111.569-65.609-131.296-100.712
		c-13.054,4.021-21.854,2.647-34.354-1.727c-26.036-9.254-31.599-26.91-34.274-40.371L200.47,613.028z"/>
	<path fill="#E6CC54" d="M198.25,613.754l6.532,0.688c-1.003,38.6,53.972,55.154,66.856,39.913
		c23.062,49.736,61.06,98.226,129.129,102.659l-0.353,2.356c-76.403-5.329-110.603-66.092-130.329-101.195
		c-13.053,4.02-21.613,2.89-34.112-1.485c-24.482-8.702-30.723-26.385-33.75-39.599c-0.191-0.839-1.815-0.212-1.975-1.014
		L198.25,613.754z"/>
	<path opacity="0.98" fill="#F6E078" d="M202.206,615.105c-7.747-1.337-54.573-20.727-62.279-31.467
		c-23.286-18.339-31.795-35.161-40.049-54.065c-9.998-20.842-10.219-57.028-7.582-82.535c-0.687-2.227,5.641-32.823,7.549-38.282
		c0,0-0.625,0.779-0.717-0.039c-0.137,0.961-6.784,24.308-8.215,41.374c-2.936,24.345-2.973,74.145,22.479,108.246
		c5.194,7.898,15.25,15.809,23.476,25.334C149.734,598.575,187.852,613.795,202.206,615.105L202.206,615.105L202.206,615.105z"/>
	<path fill="#F6E077" d="M79.808,372.13l0.563-0.176l19.702,36.737l-0.563,0.736L79.808,372.13z"/>
	<path fill="#A99842" d="M607.355,609.599l-9.915,1.412c1.002,38.6-50.831,52.014-63.716,36.772
		c-22.338,45.146-46.96,95.105-128.316,104.369l-4.427-0.219l0.837,11.828l5.063-0.091c68.43,0.47,112.775-64.4,132.504-99.502
		c4.313,0.313,7.45,1.689,11.234,1.684c40.333-0.059,54.336-28.382,57.637-44.992L607.355,609.599z"/>
	<path fill="#A99842" d="M649.705,90.164c-30.309,16.544-73.156,17.393-91.903,11.262c23.08-59.555-10.332-85.549-53.175-89.013
		c-20.993-1.696-71.098,10.158-97.782,31.698c-0.491,0.396,7.817-0.924-1.05-0.736l1.187,2.124l-2.235,10.696
		c0.722-0.624,5.904,0.625,6.648,0.016c54.16-44.355,163.539-46.958,137.559,33.842c-0.792,2.461-7.463,7.951-15.185,9.345
		c-3.151,0.569-14.304,1.9-22.004-10.223c-6.498,0.464,0.45,11.978-1.302,14.368c-0.23,0.314,15.377,5.333,15.213,5.653
		c-0.193,0.375,15.077,1.505,14.88,1.883c87.984,20.909,118.636-14.057,123.114-19.113L649.705,90.164z"/>
	<path fill="#C2AD4B" d="M651.726,92.013c-24.452,19.698-81.38,16.645-100.126,10.514c11.571-11.829,14.111-38.686,8.503-53.465
		c-7.937-20.917-29.177-33.229-54.806-34.348c-21.118-0.921-53.423,5.282-95.914,31.055c-0.384,0.233-7.804-0.106-8.189,0.131
		l2.05,8.443c0.72-0.607,5.605,0.23,6.336-0.36c37.092-29.997,85.582-38.329,116.393-27.813
		c21.614,7.378,30.441,28.117,29.271,47.992c-0.28,4.765-1.494,9.525-3.87,13.95c-2.103,6.755-8.476,12.904-14.011,20.097
		c0.531,0.111,4.925,0.887,5.451,0.994c83.605,17.052,112.123-12.615,116.573-17.64L651.726,92.013z"/>
	<path fill="#D0B847" d="M654.074,92.497c-23.834,19.2-80.447,19.86-104.785,12.004c-0.634-0.204-1.288-0.458-1.876-0.674
		c15.2-30.454,13.424-53.196,1.888-67.895c-0.896-1.142-0.111-1.249-1.071-2.339c-9.572-10.875-25.488-16.171-41.773-17.207
		c-21.057-1.338-55.994,4.842-96.076,30.617c-0.44,0.283-10.067,0.568-10.51,0.856l-2.952,5.014l12.907,0.006
		c35.568-27.901,84.649-39.179,116.114-28.602c27.211,9.146,33.434,33.649,29.489,62.76c-0.949,7.011-12.846,13.212-18.38,20.405
		c0.375,0.077,3.379,0.159,4.013,0.244c2.243,0.301,5.652,0.635,6.941,0.876c76.86,14.424,104.885-12.16,109.27-17.109
		L654.074,92.497z"/>
	<path fill="#E6CC54" d="M654.244,92.667c-21.032,16.942-68.664,19.691-96.346,14.716c-4.503-0.809-9.731-1.823-12.979-3.013
		c15.7-27.247,15.758-48.354,7.576-62.884c-8.281-14.708-25.479-22.743-45.87-24.039c-21.111-1.342-53.624,3.276-95.631,30.471
		c-0.349,0.227-13.474,1.028-13.824,1.258l-0.044,2.694l12.87-0.257c40.161-29.193,83.889-37.735,115.816-28.653
		c30.063,8.552,39.217,43.522,30.485,65.477c-2.613,6.574-10.188,10.423-15.723,17.616c73.536,15.971,112.389-9.374,116.868-14.431
		L654.244,92.667z"/>
	<path opacity="0.98" fill="#AC9940" d="M740.709,120.162c3.887-20.308,3.814-49.105-8.404-67.915
		C721.703,39.323,710.27,27.09,695.02,24.508c-12.401-2.036-18.391-5.238-25.703-2.94c-8.178,2.569-5.886-1.197-23.339,6.724
		c-7.999,3.63-12.713,4.687-19.175,28.476c0.002,2.971-2.9,23.502,16.473,33.796c7.206,3.83,19.186,3.395,26.008-3.508
		c6.557-6.635,5.283-19.152,4.746-18.363c-3.15-7.893-29.133,25.952-33.096-4.499c0.027-41.585,105.205-45.354,80.831,60.425
		c3.666,2.828,35.983,22.482,36.461,51.906c0.015,0.849-5.009,25.654-5.914,22.999c-13.219,23.94-33.521,26.57-56.009-7.002
		c0.37,0.87-14.986,15.608-12.496,52.386c-1.88,7.998,16.418,82.123,36.465,126.291c0.807,1.776-14.785,27.06-19.829,37.119
		c-1.112,2.221,61.389,153.535-101.238,203.599c-5.173,12.284,7.148,8.776,7.862,8.62c1.649-0.359,71.903-6.29,103.067-82.78
		c23.405-57.441,3.521-129.777,3.72-129.798c1.279-2.996,18.678-36.467,19.133-37.541c-45.967-113.805-35.921-161.134-33.342-157.05
		c11.93,18.917,21.347,15.001,30.167,17.563c18.503-0.884,29.365-16.965,29.427-17.063c40.54-64.929-21.503-96.375-18.531-93.707
		L740.709,120.162z"/>
	<path fill="#AC9940" fill-opacity="0.9804" stroke="#AA8800" stroke-width="1.1129" d="M658.13,92.696
		c7.825-0.284,16.92-11.041,16.92-19.509s-7.59-14.895-16.772-13.821"/>
	<path fill="#C2AD4B" d="M671.365,80.5c-7.136,9.883-18.751,9.917-23.803,8.529c-6.107-1.678-12.023-6.387-13.824-8.443
		c-6.173-7.051-8.677-21.59-3.417-33.18c2.622-15.316,30.231-33.348,63.88-23.318c24.113,8.473,55.353,35.064,43.809,96.246
		c-12.357,2.627-0.059,0.126-12.521,2.751c21.073-80.018-45.775-103.388-75.048-82.968c-12.719,10.344-15.904,26.412-7.893,37.976
		C648.097,82.647,664.79,81.418,671.365,80.5L671.365,80.5z"/>
	<path fill="#947C00" d="M663.31,84.101c2.687-2.33-12.984-0.438,11.321-7.375c1.941-2.441,0.216-0.903,0.872-2.989
		c-7.634-18.755-18.237-16.156-24.831-14.824C637.333,61.605,639.06,92.902,663.31,84.101L663.31,84.101z"/>
	<path opacity="0.98" fill="#AC9940" d="M645.323,68.446c13.54,10.711,13.434,14.403,5.039,13.646
		c2.516,1.276-2.766-0.016-9.49-8.34c2.104,17.471,35.192,15.96,33.827-1.176c-0.486-10.104-4.954-11.447-12.178-14.595
		c-5.144-2.241-12.411,0.315-15.571,4.27c-1.342,1.68-2.223,3.878-2.294,6.026c-0.066,1.999,0.661,4.063,1.756,5.736
		c1.142,1.746,2.765,3.434,4.75,4.075c2.074,0.67,4.746,0.724,6.515-0.55c1.646-1.185,2.476-3.56,2.407-5.587
		c-0.063-1.846-2.532-4.927-2.532-4.927s4,0.765,5.168,2.234c1.199,1.508,1.575,3.08,1.327,4.99
		c-0.291,2.238-1.258,4.83-3.114,6.114c-1.898,1.312-10.716-2.6-13.169-2.789c-0.668-0.051,4.986,4.354,4.339,4.183
		c-5.916-1.563,0.757-4.646,0.281-10.493c-0.266-3.25-5.149-3.133-3.286-5.811c1.527-2.196,0.673-4.072,3.171-5.03
		c4.323-1.656,9.108-1.413,12.421,0.438c6.473,4.551,2.432,8.721,7.794,10.898c-2.551-0.783-2.756-4.896-14.068-12.028
		C646.576,57.667,647.448,59.063,645.323,68.446L645.323,68.446z"/>
	<path fill="none" stroke="#806600" stroke-width="1.1131" d="M626.751,64.063c0.007,3.521,2.253,11.396,2.886,12.852
		c4.49,10.322,11.817,14.22,22.006,15.794c12.919,1.927,23.593-7.012,23.531-18.337c-0.13-0.783-0.146-3.246-0.275-4.029
		c-6.87-18.565-19.767-13.938-25.607-4.797c-7.489,11.094,3.456,16.633,8.332,13.673c1.854-1.126,2.881-3.432,1.767-7.042
		c1.486,5.653-2.334,8.736-6.367,7.757c-4.133-1.736-7.278-3.187-5.817-10.25c0.738-2.629,10.716,0.521,13.41-1.727
		c4.051-3.56,3.407-5.284,5.68-9.247c5.227,2.369,8.481,9.285,8.854,15.275"/>
	<path opacity="0.98" fill="#B9A33F" d="M655.824,55.44c-9.053,0.344-12.568,11.159-10.04,17.771
		c2.019,5.283,6.846,9.343,12.2,9.12c7.325-0.592,12.938-3.913,12.263-14.431C669.839,61.572,664.184,52.766,655.824,55.44
		L655.824,55.44z"/>
	<path opacity="0.98" fill="#D1B948" d="M646.375,71.891c-3.033-6.274,1.381-11.609,6.907-13.721
		c5.525-2.112,11.207,0.633,13.318,6.16c2.112,5.526-0.633,11.667-6.159,13.778C654.915,80.22,648.949,77.217,646.375,71.891
		L646.375,71.891z"/>
	<path opacity="0.98" fill="none" stroke="#806600" stroke-width="0.9014" d="M670.098,61.417
		c-10.674-11.739-24.638-4.392-25.617,5.978c-0.402,4.274,1.238,10.957,8.902,14.975"/>
	<path opacity="0.98" fill="none" stroke="#806600" stroke-width="1.1129" d="M641.508,69.686
		c0.8,4.789,2.909,8.999,6.644,10.893c0.936,0.475,2.607,1.449,5.105,1.607"/>
	<path fill="#D0B847" d="M654.842,88.142c0,0-22.425,2.218-25.046-24.917c-1.002-23.738,16.296-34.528,32.368-38.107
		c41.249-8.164,73.877,23.617,76.843,65.436c0.118,1.668-2.369,28.145-2.344,29.845c-8.91,2.134,0.037,0.329-9.135,1.814
		c1.203-3.93,2.258-11.624,2.974-19.397c0.726-10.882,0.341-21.813-2.139-31.659c-22.676-61.484-100.213-46.346-92.27-0.632
		c0.359,2.069,2.938,6.756,5.594,10.581C642.889,82.837,646.801,86.009,654.842,88.142L654.842,88.142z"/>
	<path fill="#E6CC54" d="M642.106,84.157c0,0-16.091-10.358-8.246-36.803c5.717-15.933,29.497-24.019,48.445-21.958
		c21.387,5.075,25.188,9.553,31.837,15.246c11.066,9.733,16.104,20.596,19.469,29.493c2.159,7.318,5.477,21.686,1.521,50.574
		c-7.436,1.621,1.382,0.182-6.527,1.521c3.109-16.173,5.146-32.373,1.502-50.113c-3.178-10.214-10.729-25.012-29.143-36.194
		c-7.495-4.417-16.825-6.691-25.488-7.043c-10.816,0.184-18.884,2.258-26.945,7.501C637.008,43.934,625.863,63.181,642.106,84.157
		L642.106,84.157z"/>
	<path opacity="0.98" fill="#F6E078" d="M635.09,50.359c5.102-17.21,24.073-25.73,43.469-24.337
		c9.764,0.701,19.635,4.466,27.9,9.781c12.912,8.743,30.311,31.963,28.31,49.165c-13.8-67.06-83.29-69.386-99.681-34.609
		L635.09,50.359z"/>
	<path fill="none" stroke="#806600" stroke-width="1.1131" d="M408.338,42.362c16.938-11.908,39.731-21.291,68.683-27.583
		c55.811-12.129,108.382,18.438,79.994,86.78c27.622,6.702,67.279,3.988,90.973-9.659 M626.826,65.282
		c-0.048-0.561-0.087-1.118-0.115-1.669c-3.448-66.841,137.882-59.047,113.882,55.773c73.924,43.58,2.683,154.162-41.457,93.558
		c-7.76,30.807,4.581,82.016,34.093,157.791c-19.243,36.334-19.381,37.3-19.381,37.3c43.744,181.926-97.474,213.846-105.709,212.508
		c-2.942,41.251-61.499,51.391-69.5,42.784c-48.715,96.415-123.347,105.802-155.527,98.56"/>
	<path fill="none" stroke="#806600" stroke-width="1.1133" d="M409.22,57.147c16.938-11.908,40.588-26.869,69.958-30.768
		c31.722-4.212,59.102,2.201,69.089,22.486c7.37,12.387,5.977,28.762,1.147,40.253 M540.186,111.249
		c42.467,10.711,97.691,9.497,126.199-21.357 M642.844,74.011c-7.794-20.298,11.502-39.708,35.308-37.018
		c27.271,1.442,59.784,27.315,43.574,87.624c14.544,10.636,28.011,23.362,33.089,36.02c13.88,34.6-22.433,88.418-58.62,31.417
		c-19.864,32.082-19.63,66.089,23.899,179.449c-19.243,36.334-20.019,36.663-20.019,36.663
		c52.664,166.642-94.287,203.655-102.523,202.317c0.754,39.517-50.269,53.504-64.404,37.688
		c-20.043,52.384-55.938,82.83-89.957,95.986c-19.728,7.63-37.975,9.161-53.307,6.85"/>
	<path opacity="0.98" fill="#C2AD4B" d="M696.553,196.908c0.371,0.87-10.933,14.031-10.244,50.359
		c1.726,15.882,15.742,72.211,37.143,123.813c0.806,1.776-15.462,27.511-20.506,37.57c1.116,3.813,58.843,157.804-101.69,204.723
		c3.782,6.857,4.156,4.651,3.512,5.319c1.651-0.359,73.193-10.432,104.041-81.824c23.405-57.441,1.942-128.782,2.143-128.806
		c1.278-2.996,18.901-36.017,19.358-37.088c-51.678-135.122-33.455-154.147-31.766-162.686c1.707,2.103,1.279-7.334-1.993-11.387
		L696.553,196.908z"/>
	<path opacity="0.98" fill="#D0B847" d="M696.567,199.071c0.37,0.87-9.112,12.341-9.203,48.148
		c1.726,15.882,16.003,72.601,37.403,124.203c0.806,1.777-15.462,27.121-20.506,37.178c1.115,3.814,59.052,157.506-101.949,205.378
		c2.026,4.036-0.008-0.007,2.211,3.889c1.651-0.36,71.502-10.822,103.26-81.434c23.405-57.442,1.813-128.392,2.013-128.415
		c1.278-2.996,18.901-36.017,19.359-37.088c-51.679-135.122-32.674-156.353-30.984-164.892c2.169-0.986,0.022-5.223-1.603-6.965
		L696.567,199.071z"/>
	<path opacity="0.98" fill="#E6CC54" d="M696.453,200.693c0.37,0.87-8.071,10.78-8.164,46.587
		c1.726,15.882,16.394,72.861,37.794,124.463c-1.015,2.297-15.462,26.73-20.506,36.788c1.116,3.814,58.011,158.687-102.989,206.545
		c2.026,4.036-1.438-2.089,0.78,1.808c1.65-0.359,71.633-10.042,103.389-80.653c23.405-57.442,1.813-128.262,2.014-128.287
		c1.278-2.994,19.031-35.755,19.487-36.829c-51.678-135.122-32.282-158.559-30.594-167.097
		C697.168,205.861,699.725,204.646,696.453,200.693L696.453,200.693L696.453,200.693z"/>
	<path opacity="0.98" fill="#F6E078" d="M726.48,369.981c-4.04-11.664-11.313-30.987-15.416-43.555
		c-5.6-17.148-8.908-30.662-12.902-45.262c-5.821-31.756-7.354-37.442-5.376-63.994c0.085-1.146,0.42-2.292,0.657-3.484
		c-9.998,21.167,3.396,68.43,5.875,77.988c2.566,9.1,6.479,21.346,10.577,33.247C716.315,343.564,721.659,359.857,726.48,369.981
		L726.48,369.981L726.48,369.981z"/>
	<path fill="#C2AD4B" d="M606.231,611.662l-6.774,1.171c1.002,38.599-52.038,53.703-64.924,38.464
		c-21.737,50.19-58.966,99.386-127.534,103.325c-0.37,0.021-5.961,0.088-6.334,0.106l0.011,6.48l1.05,2.568
		c76.402-5.329,116.323-67.76,136.052-102.861c13.781,4.217,24.324,2.07,37.296-3.085c23.596-9.537,30.212-27.041,31.575-39.739
		L606.231,611.662z"/>
	<path fill="#D0B847" d="M606.458,612.929l-5.083,0.446c1.002,38.6-51.139,52.675-65.891,40.88
		c-23.062,49.736-61.302,97.502-129.371,101.935l-5.824,0.047l-0.052,3.665c0.262-0.019,6.027,0.057,6.289,0.037
		c75.858-5.686,110.852-65.673,130.511-100.654c13.054,4.02,21.854,2.648,34.354-1.727c26.035-9.254,31.6-26.91,34.274-40.371
		L606.458,612.929z"/>
	<path fill="#E6CC54" d="M608.663,613.654l-6.532,0.688c0.428,38.743-50.095,51.996-66.139,41.204
		c-22.948,49.492-61.398,96.473-128.849,101.301c-0.333,0.024-6.734,0.047-7.067,0.068l-0.329,2.484l6.75-0.128
		c76.403-5.329,110.603-66.092,130.329-101.193c13.054,4.019,21.614,2.889,34.112-1.486c24.483-8.701,30.724-26.385,33.75-39.599
		c0.193-0.838,1.815-0.211,1.977-1.015L608.663,613.654z"/>
	<path opacity="0.98" fill="#F6E078" d="M604.707,615.006c7.746-1.337,54.573-20.727,62.278-31.467
		c23.286-18.338,31.796-35.161,40.05-54.065c9.998-20.841,10.219-57.028,7.581-82.535c0.687-2.227-5.641-32.823-7.549-38.282
		c0,0,0.626,0.779,0.718-0.039c0.136,0.961,6.784,24.308,8.215,41.374c2.936,24.346,2.973,74.146-22.479,108.246
		c-5.195,7.899-15.25,15.809-23.476,25.335C657.179,598.477,619.062,613.695,604.707,615.006L604.707,615.006L604.707,615.006z"/>
	<path fill="#F6E077" d="M727.105,372.045l-0.563-0.176l-19.701,36.738l0.563,0.734L727.105,372.045z"/>
	<path fill="#C2AD4B" d="M81.06,180.086c12.282-9.929,25.337,3.451,27.479,7.74c1.267,2.536,3.05,6.67,3.444,9.311
		c0.413,2.761-0.74,6.52-0.895,7.79c-1.03,8.516-10.738,19.109-21.851,22.611c-12.482,4.759-32.905-0.21-48.127-29.118
		c-4.982-17.629-15.161-48.842,28.238-78.34c10.38,3.105,2.743,0.982,12.15,3.271c-40.368,25.739-41.898,60.563-26.552,81.507
		c8.906,10.43,18.372,16.698,31.424,12.238c8.784-3.097,13.606-10.414,13.927-16.647C100.008,193.885,85.703,184.004,81.06,180.086
		L81.06,180.086z"/>
	<path fill="#947C00" d="M94.067,182.634c-3.229-0.406,7.639,9.114-11.945-3.205c-2.849,0.17-0.747,0.405-2.568,1.233
		c-8.112,16.666,0.142,22.301,5.079,25.98C94.62,214.084,114.887,193.775,94.067,182.634L94.067,182.634z"/>
	<path opacity="0.98" fill="#AC9940" d="M94.394,204.464c-0.981-15.771,1.6-17.958,6.216-11.775
		c-0.668-2.494,1.68,1.895,0.12,11.564c10.664-12.089-9.28-33.051-21.48-22.326c-6.585,6.507-4.77,10.373-2.499,17.218
		c1.616,4.875,7.802,8.263,12.427,7.999c1.966-0.113,4.002-0.857,5.509-2.122c1.402-1.176,2.363-2.934,2.834-4.702
		c0.491-1.846,0.649-3.983-0.127-5.728c-0.812-1.822-2.409-3.676-4.357-4.102c-1.813-0.397-3.939,0.49-5.277,1.775
		c-1.22,1.171-1.809,4.737-1.809,4.737s-1.924-3.192-1.638-4.886c0.294-1.739,1.135-2.955,2.589-3.955
		c1.702-1.17,4.059-2.096,6.069-1.615c2.054,0.491,4.779,8.889,6.149,10.676c0.374,0.486-0.081-6.06,0.197-5.513
		c2.552,4.985-3.629,2.325-7.32,6.223c-2.053,2.168,1.013,5.423-1.949,5.791c-2.431,0.302-3.186,2.031-5.365,0.914
		c-3.771-1.933-6.531-5.341-7.295-8.729c-0.855-7.192,4.455-6.988,2.66-11.973c1.026,2.217-1.65,4.871,0.407,16.938
		C86.281,210.199,86.699,208.752,94.394,204.464L94.394,204.464L94.394,204.464z"/>
	<path fill="none" stroke="#806600" stroke-width="1.0188" d="M97.866,224.088c4.618-1.712,11.279-12.802,11.884-14.123
		c4.288-9.369,2.465-16.744-2.691-24.649c-6.587-9.979-19.2-11.787-26.879-4.823c-0.454,0.568-2.122,2.084-2.576,2.651
		c-8.449,16.03,2.587,21.987,12.386,20.378c12.136-1.68,9.218-12.522,4.222-14.035c-1.9-0.576-4.099,0.135-5.878,3.101
		c2.943-4.468,7.379-3.75,9.178-0.404c1.343,3.878,2.278,6.907-3.428,10.23c-2.241,1.104-6.194-7.62-9.375-8.081
		c-4.901-0.583-5.682,0.908-9.77,1.783c-1.581-5.008,1.141-11.454,4.993-15.371"/>
	<path opacity="0.98" fill="#B9A33F" d="M79.111,205.261c5.769,5.957,15.283,1.74,18.245-4.024
		c2.365-4.604,2.181-10.375-1.246-13.887c-4.882-4.629-10.574-6.422-17.327,0.469C74.721,191.964,72.179,201.2,79.111,205.261
		L79.111,205.261z"/>
	<path opacity="0.98" fill="#D1B948" d="M96.102,201.633c-2.421,5.9-8.753,6.156-13.57,3.682
		s-6.419-8.022-3.945-12.839s8.335-6.701,13.152-4.227C96.556,190.723,98.157,196.623,96.102,201.633z"/>
	<path opacity="0.98" fill="none" stroke="#806600" stroke-width="0.8251" d="M74.471,191.884
		c-1.473,14.447,12.069,19.47,19.732,13.797c3.158-2.339,6.708-7.542,4.761-15.218"/>
	<path opacity="0.98" fill="none" stroke="#806600" stroke-width="1.0187" d="M95.333,210.156
		c2.774-3.472,6.576-11.339,5.583-15.041c-0.249-0.929-1.347-3.998-2.766-5.795"/>
	<path fill="#D0B847" d="M101.993,185.936c0,0,15.218,13.922-1.664,32.294c-15.561,15.194-32.15,10.599-43.523,0.205
		c-22.903-20.086-26.268-51.761-7.33-78.751c2.767-3.942,6.633-7.321,10.125-10.931c0.539-0.557,4.785-4.254,10.019-7.455
		c10.185,1.299-2.937-0.961,9.763,1.306c-10.378,6.455-21.001,16.068-27.528,27.63c-24.784,46.448,21.056,91.513,47.82,59.244
		c1.228-1.479,4.586-6.13,5.568-10.279C105.687,197.322,105.455,192.719,101.993,185.936L101.993,185.936z"/>
	<path fill="#E6CC54" d="M107.06,197.05c0,0,2.779,17.293-20.033,28.115c-14.349,5.845-30.539-5.71-40.72-19.878
		c-9.615-17.672-7.852-22.556-8.037-30.563c-0.134-13.489,4.633-21.188,8.639-28.921c2.996-4.862,11.402-14.763,25.478-25.799
		c2.567,0.683-2.447,1.116,5.444,1.919c-9.231,5.176-19.033,16.093-26.539,26.24c-5.016,8.409-9.591,20.08-7.141,38.422
		c1.572,7.807,2.168,13.477,7.225,19.594c6.736,7.257,11.747,12.819,20.248,15.106c12.189,3.231,31.077-0.349,35.438-24.238v0.003
		H107.06z"/>
	<path opacity="0.98" fill="#F6E078" d="M88.331,222.494c-14.845,7.045-26.313-1.412-38.853-15.183
		c-6.032-6.625-8.515-16.256-9.947-25.136c0.288-29.859,14.073-45.824,27.015-54.976C17.298,174.597,50.82,232.009,88.331,222.494z"
		/>
	<path fill="#C2AD4B" d="M725.64,179.532c-12.281-9.929-25.336,3.45-27.479,7.74c-1.267,2.536-3.049,6.67-3.444,9.311
		c-0.414,2.76,0.741,6.52,0.895,7.79c1.029,8.516,10.739,19.109,21.85,22.611c12.483,4.759,32.906-0.21,48.127-29.117
		c4.982-17.629,15.161-48.843-28.236-78.34c-10.382,3.105-2.743,0.982-12.151,3.271c40.367,25.739,41.898,60.563,26.552,81.506
		c-8.906,10.43-18.371,16.698-31.424,12.238c-8.784-3.097-13.606-10.414-13.926-16.647
		C706.692,193.33,720.996,183.45,725.64,179.532L725.64,179.532z"/>
	<path fill="#947C00" d="M712.632,182.079c3.23-0.407-7.637,9.113,11.945-3.205c2.851,0.17,0.749,0.405,2.569,1.234
		c8.11,16.666-0.143,22.301-5.08,25.979C712.08,213.528,691.814,193.22,712.632,182.079L712.632,182.079z"/>
	<path opacity="0.98" fill="#AC9940" d="M712.305,203.909c0.981-15.772-1.6-17.958-6.216-11.775
		c0.668-2.494-1.678,1.895-0.119,11.564c-10.666-12.089,9.278-33.051,21.479-22.327c6.585,6.507,4.77,10.374,2.499,17.219
		c-1.617,4.875-7.802,8.263-12.429,7.998c-1.963-0.113-4.001-0.857-5.507-2.121c-1.402-1.177-2.364-2.934-2.835-4.702
		c-0.492-1.846-0.65-3.983,0.127-5.728c0.813-1.822,2.408-3.676,4.357-4.102c1.813-0.397,3.939,0.49,5.278,1.775
		c1.219,1.17,1.809,4.737,1.809,4.737s1.924-3.192,1.637-4.886c-0.294-1.739-1.135-2.956-2.588-3.955
		c-1.702-1.17-4.06-2.095-6.068-1.615c-2.055,0.491-4.779,8.889-6.15,10.676c-0.373,0.486,0.082-6.06-0.198-5.513
		c-2.551,4.985,3.629,2.325,7.32,6.223c2.053,2.168-1.012,5.423,1.95,5.791c2.43,0.302,3.187,2.03,5.365,0.914
		c3.771-1.933,6.53-5.341,7.294-8.73c0.855-7.192-4.455-6.988-2.66-11.972c-1.026,2.217,1.65,4.87-0.407,16.938
		C720.417,209.646,719.999,208.198,712.305,203.909L712.305,203.909z"/>
	<path fill="none" stroke="#806600" stroke-width="1.0188" d="M708.834,223.533c-4.619-1.712-11.281-12.802-11.886-14.123
		c-4.287-9.369-2.464-16.744,2.692-24.649c6.585-9.979,19.2-11.787,26.878-4.823c0.453,0.567,2.122,2.083,2.577,2.651
		c8.449,16.029-2.588,21.986-12.386,20.379c-12.137-1.681-9.219-12.522-4.222-14.035c1.9-0.575,4.098,0.135,5.877,3.102
		c-2.942-4.468-7.378-3.75-9.178-0.403c-1.343,3.877-2.278,6.907,3.428,10.229c2.242,1.104,6.194-7.619,9.375-8.081
		c4.901-0.583,5.682,0.908,9.771,1.783c1.58-5.008-1.141-11.454-4.993-15.37"/>
	<path opacity="0.98" fill="#B9A33F" d="M727.575,204.691c-5.769,5.957-15.283,1.74-18.245-4.023
		c-2.365-4.605-2.181-10.376,1.246-13.887c4.881-4.629,10.573-6.423,17.326,0.468C731.965,191.395,734.507,200.631,727.575,204.691
		L727.575,204.691z"/>
	<path opacity="0.98" fill="#D1B948" d="M710.598,201.077c2.422,5.901,8.754,6.156,13.57,3.682
		c4.817-2.475,6.42-8.022,3.945-12.839c-2.474-4.817-8.335-6.701-13.152-4.227C710.145,190.167,708.543,196.067,710.598,201.077
		L710.598,201.077z"/>
	<path opacity="0.98" fill="none" stroke="#806600" stroke-width="0.8251" d="M732.229,191.33
		c1.473,14.447-12.069,19.471-19.732,13.797c-3.158-2.338-6.707-7.542-4.76-15.218"/>
	<path opacity="0.98" fill="none" stroke="#806600" stroke-width="1.0187" d="M711.353,209.601
		c-2.774-3.472-6.577-11.338-5.585-15.041c0.249-0.929,1.348-3.998,2.767-5.796"/>
	<path fill="#D0B847" d="M704.693,185.366c0,0-15.219,13.922,1.664,32.294c15.56,15.194,32.15,10.599,43.522,0.205
		c22.903-20.086,26.268-51.761,7.331-78.751c-2.767-3.942-6.634-7.321-10.126-10.931c-0.539-0.557-4.785-4.254-10.018-7.455
		c-10.186,1.299,2.937-0.961-9.764,1.306c10.378,6.454,21.001,16.067,27.528,27.63c24.784,46.447-21.056,91.513-47.819,59.244
		c-1.228-1.479-4.586-6.13-5.568-10.278C700.999,196.753,701.23,192.149,704.693,185.366L704.693,185.366z"/>
	<path fill="#E6CC54" d="M699.626,196.495c0,0-2.78,17.293,20.032,28.116c14.35,5.846,30.539-5.71,40.721-19.879
		c9.615-17.671,7.851-22.556,8.035-30.563c0.136-13.489-4.631-21.188-8.637-28.921c-2.996-4.862-11.402-14.763-25.478-25.799
		c-2.568,0.684,2.447,1.116-5.445,1.919c9.233,5.176,19.034,16.093,26.541,26.24c5.016,8.409,9.591,20.079,7.14,38.422
		c-1.57,7.807-2.167,13.477-7.224,19.594c-6.737,7.258-11.746,12.819-20.247,15.106c-12.189,3.231-31.077-0.348-35.438-24.237
		V196.495L699.626,196.495z"/>
	<path opacity="0.98" fill="#F6E078" d="M718.353,221.925c14.845,7.045,26.315-1.412,38.854-15.183
		c6.032-6.624,8.515-16.256,9.947-25.136c-0.288-29.859-14.073-45.824-27.015-54.976
		C789.387,174.027,755.866,231.44,718.353,221.925z"/>
	<path fill="#C2AD4B" d="M523.607,62.285c-13.956-5.507-21.985,10.334-22.706,14.832c-0.428,2.659-0.868,6.913-0.476,9.419
		c0.411,2.62,2.083,5.509,2.584,6.616c3.354,7.427,16.776,12.183,27.082,12.645c3.381,0.223,6.978,0.152,9.963,0.492
		c0.714,0.082-0.75-0.651-1.965-1.173c-0.249-0.107-1.432-0.205-1.539-0.285c-0.512-0.382,1.992-0.25,2.809-0.58
		c2.204-0.889,5.425-3.173,7.381-4.523c-3.087-8.362,10.503-14.309,4.806-12.821c-0.412,0.108,0.258-2.306-0.104-1.613
		c-4.338,8.31-14.104,13.785-22.394,13.841c-8.842-0.309-16.549-6.375-18.609-11.935C508.834,81.167,520.512,67.157,523.607,62.285
		L523.607,62.285L523.607,62.285z"/>
	<path fill="#947C00" d="M512.549,68.276c2.812-1.286-4.331,10.433,9.916-6.302c2.631-0.657,0.793,0.154,2.68,0.387
		c12.092,12.799,6.214,20.254,2.784,24.993C520.992,96.94,496.846,84.296,512.549,68.276L512.549,68.276z"/>
	<path opacity="0.98" fill="#AC9940" d="M518.455,88.17c-3.598-14.575-6.558-15.823-8.983-8.905
		c-0.104-2.451-0.983,2.194,3.181,10.516c-13.105-7.924-0.989-32.597,13.12-26.346c7.819,4.025,7.273,8.046,7.162,14.897
		c-0.079,4.878-4.722,9.708-8.99,10.784c-1.813,0.457-3.87,0.361-5.596-0.356c-1.605-0.667-2.978-1.987-3.907-3.457
		c-0.971-1.533-1.721-3.426-1.513-5.228c0.216-1.882,1.137-4.017,2.782-4.958c1.531-0.875,3.709-0.676,5.289,0.108
		c1.438,0.715,2.985,3.779,2.985,3.779s0.837-3.441,0.095-4.895c-0.761-1.492-1.869-2.356-3.471-2.849
		c-1.876-0.577-4.275-0.745-5.96,0.262c-1.723,1.03-1.805,9.417-2.537,11.427c-0.2,0.548-1.649-5.516-1.748-4.94
		c-0.895,5.244,3.95,1.075,8.404,3.559c2.478,1.381,0.625,5.203,3.415,4.694c2.289-0.417,3.465,0.935,5.123-0.698
		c2.868-2.825,4.4-6.699,4.129-9.987c-1.27-6.763-6.025-5.067-5.815-10.096c-0.3,2.302,2.881,3.946,4.449,15.467
		C527.438,91.063,526.648,89.87,518.455,88.17L518.455,88.17z"/>
	<path fill="none" stroke="#806600" stroke-width="1.1133" d="M541.096,108.976c-12.336-0.98-22.47-3.338-28.972-6.765
		c-10.442-5.631-13.736-18.462-10.601-27.792c3.132-10.918,14.052-16.145,22.992-12.016c0.573,0.385,2.517,1.285,3.09,1.67
		c12.217,12.127,3.907,20.666-5.432,21.993c-11.478,1.929-11.916-8.729-7.818-11.521c1.56-1.062,3.755-1.043,6.21,1.14
		c-3.938-3.213-7.754-1.301-8.433,2.244c-0.115,3.896-0.102,6.908,6.016,8.297c2.346,0.363,3.448-8.668,6.198-9.99
		c4.277-1.923,5.41-0.793,9.364-1.163c0.009-4.989-4.291-10.058-8.897-12.512"/>
	<path opacity="0.98" fill="#B9A33F" d="M531.605,84.471c-3.535,7.04-12.431,5.99-16.753,1.607
		c-3.453-3.501-4.928-8.784-2.821-12.942c3.108-5.583,7.759-8.829,15.839-4.503C532.731,71.235,536.733,78.819,531.605,84.471
		L531.605,84.471z"/>
	<path opacity="0.98" fill="#D1B948" d="M516.107,86.093c3.873,4.661,9.686,3.091,13.348-0.522
		c3.663-3.612,3.538-9.097-0.075-12.76c-3.613-3.663-9.461-3.703-13.124-0.09C512.593,76.333,512.819,82.136,516.107,86.093
		L516.107,86.093z"/>
	<path opacity="0.98" fill="none" stroke="#806600" stroke-width="0.7839" d="M532.941,71.094
		c5.445,12.677-5.401,21.081-13.96,18.119c-3.529-1.221-8.226-4.928-8.644-12.441"/>
	<path opacity="0.98" fill="none" stroke="#806600" stroke-width="1.1133" d="M549.506,86.178
		c-7.266,10.645-29.302,21.061-39.622-4.621c-0.341-0.847,0.085-4.007,0.86-6.04"/>
	<path fill="#D0B847" d="M506.288,73.528c0,0-9.836,16.947,10.692,28.798c18.291,7.421,32.156,0.463,39.509-12.192
		c5.324-13.21,11.729-36.616-8.447-59.062c0.181,1.496,2.248,6.34,2.823,7.364c4.303,7.652,8.402,4.218,4.122,14.981
		c6.567,29.429-10.003,49.976-30.785,46.19c-3.214-0.808-6.229-2.618-9.654-4.82c-1.535-0.987-5.362-4.835-7.433-8.315
		c-0.936-1.575-2.037-5.813-0.828-12.946L506.288,73.528z"/>
	<path fill="#E6CC54" d="M504.865,85.055c0,0,2.399,15.933,26.155,19.253c2.931,0.244,5.55-0.024,8.239-0.945
		c0.374-0.128,4.82,1.211,5.188,1.063c1.457-0.585,2.273-1.969-0.287-2.647c8.171-5.25,14.657-16.333,15.982-26.404
		c2.646-15.843-1.59-25.99-4.397-31.361c-2.254-4.602-5.622-8.671-7.966-11.391c-0.453-0.521,3.104,6.285,3.127,6.82
		c5.238,8.286,8.049,25.122,5.29,37.383c-1.333,4.923-2.474,9.124-4.911,12.655c-2.029,2.943-4.198,5.42-7.404,7.462
		c-10.131,6.396-28.269,8.523-39.016-11.89L504.865,85.055z"/>
	<path opacity="0.98" fill="#F6E078" d="M529.071,102.785c15.46-0.102,25.073-7.542,29.836-24.812
		c2.12-7.684,2.204-18.059-3.483-31.706C558.721,59.833,565.466,98.613,529.071,102.785L529.071,102.785z"/>
	<path fill="#C2AD4B" d="M281.955,65.416c13.956-5.507,19.794,9.802,20.516,14.3c0.427,2.658,0.934,5.983,0.541,8.49
		c-0.41,2.62-2.414,6.903-2.915,8.01c-3.354,7.426-14.321,12.249-24.627,12.711c-3.381,0.222-7.31-0.18-10.295,0.16
		c-0.713,0.082-3.893-0.583-2.68-1.106c0.148-0.064,2.207-0.495,3.891-0.739c1.212-0.176,2.581,0.752,2.624,0.719
		c0.513-0.382-2.058-0.847-2.875-1.177c-2.202-0.889-5.356-2.576-7.313-3.926c3.087-8.362-10.503-14.309-4.807-12.821
		c0.414,0.108-0.257-2.306,0.105-1.613c4.338,8.31,14.104,13.785,22.394,13.841c8.842-0.309,16.549-6.375,18.609-11.934
		C296.728,84.296,285.05,70.287,281.955,65.416L281.955,65.416z"/>
	<path fill="#947C00" d="M293.027,71.421c-2.812-1.286,4.332,10.433-9.916-6.302c-2.63-0.657-0.793,0.154-2.68,0.387
		c-12.091,12.799-6.212,20.254-2.784,24.993C284.583,100.084,308.73,87.441,293.027,71.421L293.027,71.421z"/>
	<path opacity="0.98" fill="#AC9940" d="M287.107,91.302c3.597-14.575,6.557-15.823,8.982-8.906
		c0.104-2.451,0.52,2.194-3.645,10.516c13.105-7.924,1.454-32.597-12.655-26.347c-7.819,4.026-7.273,8.046-7.162,14.896
		c0.079,4.878,4.722,9.708,8.989,10.785c1.813,0.457,3.87,0.361,5.597-0.356c1.605-0.667,2.978-1.987,3.907-3.456
		c0.97-1.534,1.721-3.426,1.513-5.228c-0.218-1.883-1.137-4.017-2.782-4.958c-1.53-0.875-3.71-0.676-5.289,0.109
		c-1.438,0.715-2.986,3.779-2.986,3.779s-0.836-3.441-0.095-4.895c0.762-1.492,1.87-2.356,3.472-2.849
		c1.876-0.577,4.275-0.745,5.96,0.262c1.721,1.03,1.804,9.417,2.537,11.427c0.2,0.548,1.649-5.516,1.748-4.94
		c0.895,5.244-3.95,1.074-8.405,3.558c-2.477,1.381-0.624,5.204-3.414,4.694c-2.288-0.418-3.466,0.934-5.123-0.698
		c-2.868-2.824-4.4-6.698-4.129-9.987c1.27-6.763,6.025-5.067,5.817-10.096c0.3,2.302-2.881,3.946-4.45,15.467
		C278.123,94.193,278.913,93,287.107,91.302L287.107,91.302z"/>
	<path fill="none" stroke="#806600" stroke-width="1.1133" d="M266.515,111.651c11.342-1.063,20.82-3.089,26.925-6.306
		c10.441-5.63,13.734-18.461,10.598-27.791c-3.13-10.918-14.049-16.145-22.989-12.016c-0.574,0.386-2.517,1.285-3.089,1.67
		c-12.218,12.127-3.909,20.666,5.431,21.994c11.478,1.929,11.917-8.729,7.818-11.521c-1.56-1.062-3.755-1.042-6.21,1.14
		c3.938-3.213,7.754-1.301,8.433,2.244c0.115,3.896,0.101,6.908-6.017,8.297c-2.346,0.363-3.448-8.668-6.198-9.99
		c-4.276-1.923-5.41-0.793-9.364-1.163c-0.008-4.99,4.292-10.058,8.897-12.512"/>
	<path opacity="0.98" fill="#B9A33F" d="M273.032,87.672c3.535,7.041,13.36,5.924,17.683,1.542
		c3.452-3.501,4.927-8.784,2.82-12.942c-3.108-5.583-7.759-8.829-15.839-4.503C272.835,74.371,267.904,82.021,273.032,87.672
		L273.032,87.672z"/>
	<path opacity="0.98" fill="#D1B948" d="M289.454,89.224c-3.872,4.66-9.686,3.091-13.348-0.521
		s-3.537-9.097,0.075-12.76c3.613-3.663,9.461-3.703,13.124-0.09C292.969,79.463,292.742,85.267,289.454,89.224L289.454,89.224z"/>
	<path opacity="0.98" fill="none" stroke="#806600" stroke-width="0.7839" d="M272.619,74.239
		c-5.443,12.677,5.403,21.081,13.962,18.119c3.527-1.221,8.226-4.928,8.644-12.441"/>
	<path opacity="0.98" fill="none" stroke="#806600" stroke-width="1.1133" d="M257.549,91.244
		c8.42,9.847,28.447,17.569,38.14-6.551c0.341-0.847-0.085-4.007-0.859-6.04"/>
	<path fill="#D0B847" d="M299.274,76.672c0,0,9.835,16.948-10.693,28.799c-18.291,7.422-31.492,0.464-38.846-12.191
		c-5.987-13.077-12.061-37.081,8.448-59.261c-0.182,1.496-2.912,6.54-3.487,7.563c-4.303,7.652-8.401,4.218-4.123,14.982
		c-6.565,29.429,10.003,49.975,30.786,46.19c3.214-0.808,6.229-2.617,9.654-4.82c1.536-0.987,5.362-4.835,7.432-8.315
		C299.381,88.042,300.482,83.805,299.274,76.672L299.274,76.672L299.274,76.672z"/>
	<path fill="#E6CC54" d="M300.711,88.185c0,0-2.399,15.933-26.154,19.254c-2.932,0.243-5.551-0.025-8.24-0.946
		c-0.127-0.043-1.334-0.804-2.101-0.655c-1.492,0.29-4.172,1.02-4.415,0.922c-1.456-0.585-3.932-0.111-1.238-1.653
		c-0.762-1.412-1.304-2.14-2.465-3.27c-0.461-0.448-0.926-0.99-1.417-1.692c-4.022-5.739-7.843-14.474-9.248-21.641
		c-2.646-15.842,1.589-25.989,4.397-31.36c2.254-4.603,5.621-8.672,7.965-11.392c0.452-0.522-3.104,6.285-3.126,6.82
		c-5.238,8.286-8.049,25.122-5.291,37.382c1.333,4.924,2.475,9.124,4.91,12.655c2.032,2.943,4.199,5.421,7.407,7.462
		c10.13,6.396,28.268,8.523,39.015-11.89h0.001V88.185z"/>
	<path opacity="0.98" fill="#F6E078" d="M276.49,105.916c-15.459-0.102-25.073-7.542-29.836-24.811
		c-2.12-7.685-2.204-18.059,3.484-31.707C246.841,62.963,240.096,101.743,276.49,105.916L276.49,105.916z"/>
</g>
<g>
	<path opacity="0.98" fill="#947C00" d="M448.967,737.233c-5.236-0.386-8.803,1.846-13.113,4.843
		c-3.557,2.474-5.582,14.366-6.871,18.503c-6.037,2.34-12.572,1.138-15.885,3.075c7.575-2.706-15.354,0.327-15.354,0.327
		c-46.063,4.456-16.162,3.325,8.462,10.002c8.579,2.326,17.968,11.76,21.289,14.254c28.485-7.271,58.312-14.87,88.283-23.834
		l9.39-22.692l-9.766-19.567l-8.457,2.012c0,0-12.735,5.474-19.688,7.72c-6.45,2.084-12.503,6.854-19.216,7.802
		C461.573,740.588,454.201,737.621,448.967,737.233L448.967,737.233z"/>
	<path opacity="0.98" fill="#B6A34A" d="M439.774,794.143c29.633-18.029,29.735-41.691-2.857-57.041
		c0,0,3.984-2.541,6.244-3.052c11.487-2.597,15.945,1.919,29.994-1.35c13.37-3.11,33.934-13.127,38.618-12.774
		c9.808,3.587,16.085,13.632,18.499,23.479c2.262,9.229,1.256,20.43-8.252,28.935c-12.341,6.84-66.909,27.936-82.248,21.804
		L439.774,794.143L439.774,794.143z"/>
	<path opacity="0.98" fill="#C3AD4B" d="M439.774,794.143c12.555-8.061,20.045-15.873,21.668-24.476
		c1.614-8.567-2.594-17.926-11.53-25.002c-2.294-1.816-4.139-2.274-7.146-3.957c0,0,3.984-2.542,6.244-3.052
		c11.487-2.597,15.045,3.585,29.094,0.317c13.37-3.111,35.998-14.079,40.685-13.727c6.69,5.023,9.399,9.412,11.484,19.157
		c2.192,10.245,0.854,20.856-8.252,28.936C509.68,779.18,455.111,800.275,439.774,794.143L439.774,794.143L439.774,794.143z"/>
	<path opacity="0.98" fill="#D1B948" d="M441.865,792.776c9.397-6.821,18.189-15.787,19.571-23.115
		c1.616-8.566-2.593-17.926-11.529-25.001c13.526,6.718,44.069-6.155,72.865-17.015c3.9,3.897,5.885,8.228,7.495,15.756
		c1.616,7.555-0.638,18.488-4.563,25.278c-38.438,18.818-63.467,22.635-83.839,24.099V792.776z"/>
	<path opacity="0.98" fill="#E7CD54" d="M447.372,787.141c9.397-6.821,13.74-10.028,14.067-17.478
		c0.43-9.829,0.878-11.571-5.393-15.807c19.574,3.93,51.514-11.095,71.1-17.708c1.532,1.53,1.374,2.147,1.59,2.388
		c0.333,0.37,0.677,0.271,1.534,4.865c1.371,7.344,2.105,9.706-0.542,17.599C491.289,779.817,467.744,785.678,447.372,787.141
		L447.372,787.141L447.372,787.141z"/>
	<path opacity="0.98" fill="#F6E078" d="M455.356,780.751l3.828-4.14l3.734-10.828
		c23.134-0.496,44.268-11.658,67.539-19.756l0.982,7.895l-1.003,2.449C506.514,767.767,477.417,778.018,455.356,780.751
		L455.356,780.751z"/>
	<path opacity="0.98" fill="none" stroke="#806600" stroke-width="0.8034" d="M439.774,794.143
		c29.633-18.029,29.735-41.691-2.857-57.041c0,0,3.984-2.541,6.244-3.052c11.487-2.597,15.945,1.919,29.994-1.35
		c13.37-3.11,33.934-13.127,38.618-12.774c9.808,3.587,16.085,13.632,18.499,23.479c2.262,9.229,1.256,20.43-8.252,28.935
		c-12.341,6.84-66.909,27.936-82.248,21.804L439.774,794.143L439.774,794.143z"/>
	
		<path opacity="0.98" fill="#D1B948" stroke="#806600" stroke-width="0.8034" stroke-linejoin="round" d="
		M405.719,762.991c0.711,9.618,0.255,0.693,1.357,10.42c0,0,4.762,8.094,8.312,11.56c3.17,3.095,6.828,6.567,11.024,7.992
		c4.906,1.664,10.24,2.472,15.406,2.072c4.826-0.373,9.753-1.671,13.925-4.126c4.259-2.507,8.18-6.065,10.581-10.384
		c2.336-4.199,2.985-9.266,3.148-14.067c0.357-10.47-8.041-26.182-16.486-29.789c-3.773-1.611-9.687-1.825-13.543-0.423
		c-4.717,1.715-8.75,4.935-10.975,9.433c-1.859,3.758-1.826,7.342-0.922,11.436c0.87,3.935,2.371,8.182,5.438,10.797
		c2.504,2.139,6.125,3.204,9.411,3.001c2.912-0.18,6.023-1.833,7.685-4.23c1.717-2.478,1.6-5.516,0.92-8.452
		c-0.488-2.105-1.755-3.608-3.578-4.772c-1.625-1.04-4.07-1.485-5.76-0.556c-2.252,1.239-3.176,6.052-3.176,6.052
		s-1.609-3.223-1.336-4.89c0.303-1.845,2.201-4.193,3.887-5.003c2.158-1.036,5.146-0.43,7.347,0.512
		c2.858,1.224,4.734,3.799,6.035,6.623c1.588,3.445,1.37,7.77,0.2,11.377c-1.582,4.876-4.995,9.288-9.505,11.723
		c-4.586,2.475-10.359,2.935-15.336,1.565c-4.729-1.302-8.921-4.235-12.146-7.935c-1.834-2.104-3.16-5.105-4.229-7.684
		c-0.282-0.679-0.729-1.374-0.818-2.173c-0.068-0.611-0.095-0.642-0.095-0.642"/>
	<path opacity="0.98" fill="#E7CD54" d="M451.371,789.916c-3.043,1.281-6.413,2.021-9.768,2.28
		c-4.727,0.366-9.696-0.387-14.271-1.938c-3.338-1.132-6.802-4.257-9.952-7.333c-2.6-2.539-6.499-8.823-7.305-10.127
		c-2.395-6.463-3.487-13.572-2.655-16.291c0.015-0.126,1.272,1.116,1.287,0.982c1.045,2.492,4.691,14.915,6.772,17.303
		c3.539,4.061,8.174,7.328,13.541,8.805c5.676,1.563,12.108,1.073,17.442-1.806c5.247-2.831,9.064-7.808,10.862-13.348
		c1.345-4.147,1.67-9.087-0.334-13.438c-1.458-3.166-3.714-6.439-7.491-8.055c-2.657-1.138-6.219-2.117-9.689-0.451
		c-1.434,0.688-2.536,1.727-3.474,2.92c-0.936,1.192-1.713,2.516-1.986,4.181c-0.328,2.001,0.268,3.313,0.697,4.499
		c0.428,1.187,0.9,2.122,0.9,2.122c0.53,1.055,1.77,1.704,2.938,1.54c1.168-0.165,2.182-1.129,2.401-2.29
		c0,0,0.195-0.985,0.609-2.091c0.413-1.104,1.225-2.049,1.126-1.994c0.326-0.18,2.022-0.076,2.871,0.466
		c1.396,0.894,2.023,1.674,2.334,3.016c0.599,2.585,0.572,4.652-0.491,6.188c-1.061,1.532-3.561,2.877-5.523,2.998
		c-2.547,0.157-5.554-0.758-7.384-2.319c-2.257-1.926-3.682-5.555-4.495-9.239c-0.833-3.766-0.848-6.461,0.687-9.562
		c1.858-3.755,5.272-6.513,9.405-8.016c2.89-1.051,8.569-0.855,11.442,0.37c3.164,1.352,7.237,5.726,10.153,11.057
		c2.916,5.332,4.752,11.569,4.603,15.997c-0.157,4.614-0.825,9.253-2.797,12.796c-2.085,3.751-5.634,7.019-9.535,9.315
		C453.38,788.989,452.396,789.485,451.371,789.916L451.371,789.916z"/>
</g>
<g>
	<path opacity="0.98" fill="#947C00" d="M360.181,738.002c5.236-0.386,11.688-0.217,16,2.781
		c3.557,2.473,3.52,3.233,4.81,7.368c2.613,12.176,3.188,25.908-9.765,24.952c-2.204-0.216,6.707-2.202,6.707-2.202
		s-3.596-2.632,0.324-1.499c3.521,1.018-2.018,0.159,1.401-1.159c3.741-1.442-3.735-8.405-0.103-6.707
		c4.796,2.241,21.129,2.802,21.129,2.802l-0.924,10.27l-18.107,13.573c-28.485-7.271-54.188-15.283-84.159-24.244l-9.39-22.692
		l9.766-19.567l2.684,2.835c0,0,16.859,3.001,23.81,5.246c6.451,2.085,14.154,8.505,20.868,9.451
		c6.467,0.912,9.714-0.817,14.95-1.205L360.181,738.002z"/>
	<path opacity="0.98" fill="#B6A34A" d="M373.501,793.688c-29.633-18.029-29.735-41.692,2.856-57.041
		c0,0-3.983-2.542-6.243-3.053c-11.487-2.596-15.946,1.919-29.994-1.349c-13.371-3.111-33.935-13.127-38.619-12.774
		c-9.808,3.586-16.085,13.63-18.499,23.478c-2.263,9.229-1.255,20.432,8.253,28.936
		C303.595,778.724,358.162,799.818,373.501,793.688L373.501,793.688L373.501,793.688z"/>
	<path opacity="0.98" fill="#C3AD4B" d="M373.501,793.688c-12.555-8.061-20.046-15.873-21.668-24.475
		c-1.614-8.567,2.593-17.928,11.529-25.002c2.295-1.816,4.14-2.275,7.146-3.958c0,0-3.983-2.542-6.243-3.052
		c-11.487-2.596-15.045,3.586-29.094,0.316c-13.37-3.11-35.998-14.077-40.683-13.726c-6.69,5.022-9.4,9.412-11.486,19.157
		c-2.191,10.245-0.852,20.856,8.252,28.936C303.595,778.724,358.163,799.819,373.501,793.688L373.501,793.688z"/>
	<path opacity="0.98" fill="#D1B948" d="M371.409,792.321c-9.398-6.822-18.19-15.788-19.572-23.115
		c-1.615-8.567,2.593-17.927,11.529-25.002c-13.526,6.718-44.069-6.154-72.865-17.015c-3.901,3.896-5.884,8.229-7.496,15.756
		c-1.616,7.557,0.64,18.488,4.563,25.278C326.008,787.041,351.035,790.858,371.409,792.321L371.409,792.321L371.409,792.321z"/>
	<path opacity="0.98" fill="#E7CD54" d="M365.902,786.686c-9.397-6.821-13.74-10.028-14.067-17.479
		c-0.43-9.829-0.878-11.57,5.394-15.806c-19.575,3.93-51.515-11.096-71.1-17.709c-1.532,1.53-1.374,2.148-1.59,2.388
		c-0.333,0.37-0.677,0.271-1.534,4.866c-1.371,7.344-2.105,9.705,0.542,17.598C321.985,779.361,345.528,785.222,365.902,786.686
		L365.902,786.686z"/>
	<path opacity="0.98" fill="#F6E078" d="M357.917,780.296l-3.827-4.141l-3.735-10.829
		c-23.132-0.496-44.268-11.659-67.538-19.755l-0.983,7.895l1.002,2.449C306.76,767.311,335.856,777.562,357.917,780.296
		L357.917,780.296L357.917,780.296z"/>
	<path opacity="0.98" fill="none" stroke="#806600" stroke-width="0.8034" d="M373.501,793.688
		c-29.633-18.029-29.735-41.692,2.856-57.041c0,0-3.983-2.542-6.243-3.053c-11.487-2.596-15.946,1.919-29.994-1.349
		c-13.371-3.111-33.935-13.127-38.619-12.774c-9.808,3.586-16.085,13.63-18.499,23.478c-2.263,9.229-1.255,20.432,8.253,28.936
		C303.595,778.724,358.162,799.818,373.501,793.688L373.501,793.688L373.501,793.688z"/>
	
		<path opacity="0.98" fill="#D1B948" stroke="#806600" stroke-width="0.8034" stroke-linejoin="round" d="
		M406.132,762.949c0.686,6.158,0.599,5.949,0.068,10.004c0,0-4.763,8.094-8.312,11.56c-3.171,3.096-6.829,6.568-11.024,7.992
		c-4.907,1.664-10.24,2.472-15.406,2.073c-4.827-0.373-9.753-1.672-13.926-4.126c-4.259-2.507-8.18-6.065-10.581-10.384
		c-2.335-4.199-2.984-9.266-3.148-14.067c-0.356-10.47,8.04-26.182,16.485-29.789c3.773-1.611,9.688-1.825,13.544-0.423
		c4.716,1.715,8.75,4.935,10.975,9.433c1.859,3.757,1.826,7.341,0.922,11.436c-0.869,3.934-2.372,8.182-5.438,10.798
		c-2.504,2.137-6.125,3.203-9.411,3c-2.911-0.179-6.023-1.834-7.685-4.231c-1.717-2.478-1.602-5.516-0.921-8.452
		c0.489-2.105,1.756-3.608,3.578-4.772c1.624-1.041,4.071-1.485,5.762-0.556c2.251,1.24,3.173,6.052,3.173,6.052
		s1.61-3.222,1.337-4.89c-0.303-1.845-2.2-4.193-3.887-5.003c-2.159-1.037-5.146-0.43-7.347,0.512
		c-2.858,1.224-4.734,3.798-6.036,6.622c-1.585,3.445-1.369,7.77-0.197,11.377c1.581,4.876,4.994,9.288,9.505,11.724
		c4.585,2.474,10.359,2.934,15.334,1.564c4.73-1.303,8.922-4.235,12.146-7.935c1.834-2.104,3.159-5.105,4.23-7.684
		c0.181-0.437,0.171-1.459,0.344-1.934"/>
	<path opacity="0.98" fill="#E7CD54" d="M361.903,789.461c3.043,1.279,6.414,2.021,9.768,2.28
		c4.726,0.365,9.696-0.387,14.271-1.938c3.337-1.132,6.8-4.257,9.95-7.333c2.602-2.539,6.5-8.823,7.305-10.127
		c2.226-11.949,1.366-12.863,1.151-14.726c-0.015-0.125-2.15-0.153-2.165-0.287c0.444,6.364-2.31,14.617-4.391,17.005
		c-3.539,4.061-8.174,7.328-13.541,8.806c-5.676,1.563-12.108,1.073-17.443-1.806c-5.246-2.832-9.064-7.809-10.861-13.349
		c-1.346-4.147-1.671-9.087,0.334-13.439c1.458-3.165,3.714-6.438,7.49-8.055c2.658-1.138,6.22-2.116,9.689-0.45
		c1.434,0.687,2.536,1.727,3.474,2.918c0.938,1.193,1.714,2.518,1.987,4.183c0.328,2.001-0.27,3.313-0.697,4.497
		c-0.429,1.186-0.899,2.123-0.899,2.123c-0.531,1.055-1.771,1.703-2.939,1.539c-1.168-0.164-2.18-1.13-2.4-2.289
		c0,0-0.195-0.986-0.608-2.091c-0.414-1.105-1.226-2.049-1.127-1.995c-0.325-0.179-2.023-0.075-2.87,0.467
		c-1.396,0.893-2.023,1.673-2.336,3.016c-0.599,2.585-0.572,4.651,0.492,6.188c1.061,1.532,3.56,2.878,5.522,2.998
		c2.548,0.157,5.554-0.758,7.384-2.319c2.258-1.927,3.682-5.555,4.495-9.239c0.833-3.766,0.848-6.463-0.685-9.563
		c-1.859-3.755-5.273-6.513-9.406-8.016c-2.891-1.051-8.57-0.855-11.443,0.371c-3.163,1.351-7.236,5.725-10.152,11.056
		s-4.753,11.57-4.602,15.997c0.156,4.614,0.824,9.253,2.795,12.796c2.085,3.751,5.634,7.019,9.535,9.313
		C359.895,788.533,360.878,789.029,361.903,789.461L361.903,789.461z"/>
</g>
<g>
	<path fill="#AC8800" stroke="#AC8800" stroke-width="2.1548" stroke-miterlimit="2" d="M637.068,392.808
		c0,129.202-104.737,233.939-233.939,233.939c-129.199,0-233.938-104.737-233.938-233.939
		c0-129.201,104.738-233.938,233.938-233.938C532.33,158.869,637.068,263.607,637.068,392.808z"/>
	<path fill="#E6CC54" stroke="#AC8800" stroke-width="2.1548" stroke-miterlimit="2" d="M637.666,392.651
		c0,129.202-104.738,233.938-233.939,233.938c-129.2,0-233.938-104.737-233.938-233.938l0,0
		c0-129.201,104.738-233.938,233.938-233.938C532.928,158.713,637.666,263.45,637.666,392.651L637.666,392.651L637.666,392.651z"/>
	<path stroke="#AC8800" stroke-width="1.6161" stroke-miterlimit="2" d="M579.178,392.651c0,96.903-78.557,175.457-175.458,175.457
		c-96.902,0-175.457-78.554-175.457-175.457c0-96.902,78.555-175.458,175.457-175.458S579.178,295.749,579.178,392.651z"/>
	<path fill="#AC8800" stroke="#AC8800" stroke-width="1.0774" stroke-miterlimit="2" d="M521.002,393.277
		c0,64.907-52.618,117.524-117.524,117.524s-117.524-52.617-117.524-117.524s52.617-117.524,117.524-117.524
		C468.384,275.753,521.002,328.37,521.002,393.277z"/>
	<path fill="#E6CC54" stroke="#AC8800" stroke-width="1.0774" stroke-miterlimit="2" d="M520.604,392.552
		c0,64.601-52.369,116.97-116.969,116.97c-64.601,0-116.969-52.369-116.969-116.97s52.368-116.97,116.969-116.97
		C468.235,275.582,520.604,327.951,520.604,392.552z"/>
	<path fill="#1A1A1A" stroke="#AC8800" stroke-width="0.5387" stroke-miterlimit="2" d="M462.215,392.651
		c0.158,32.3-25.896,58.614-58.197,58.772c-32.3,0.158-58.613-25.896-58.771-58.197c-0.001-0.191-0.001-0.383,0-0.574
		c-0.159-32.3,25.896-58.614,58.196-58.772c32.3-0.159,58.614,25.897,58.772,58.197
		C462.216,392.268,462.216,392.459,462.215,392.651z"/>
</g>
</svg>
