<?xml version="1.0" encoding="utf-8"?>
<svg xmlns="http://www.w3.org/2000/svg" xml:space="preserve" width="463" height="600" viewBox="-7.64 -5.846 463 600">
  <linearGradient id="a" x1="752.1328" x2="1081.8331" y1="545.9878" y2="37.8143" gradientTransform="matrix(1 0 0 -1 -671.0898 492.3076)" gradientUnits="userSpaceOnUse">
    <stop offset="0" stop-color="#c6c7c9"/>
    <stop offset=".2967" stop-color="#b9aa95"/>
    <stop offset=".6648" stop-color="#b9b99a"/>
    <stop offset=".8571" stop-color="#9e9e9b"/>
    <stop offset="1" stop-color="#acac77"/>
  </linearGradient>
  <path fill="url(#a)" d="M0 0v190.38c0 .125-.838 274.729 220.962 395.633l2.341 1.269 2.341-1.269C447.438 465.109 446.605 190.506 446.605 190.38V0H0z"/>
  <linearGradient id="b" x1="714.8086" x2="1029.319" y1="42.4224" y2="540.1575" gradientTransform="matrix(1 0 0 -1 -671.0898 492.3076)" gradientUnits="userSpaceOnUse">
    <stop offset="0" stop-color="#d3d4b3"/>
    <stop offset=".3077" stop-color="#eeeded"/>
    <stop offset=".5495" stop-color="#d6cebd"/>
    <stop offset=".7582" stop-color="#f5f7dd"/>
    <stop offset="1" stop-color="#e1e3e1"/>
  </linearGradient>
  <path fill="url(#b)" d="M4.9 4.9v185.479S4.2 462.266 223.3 581.7c219.1-119.434 218.4-391.321 218.4-391.321V4.9H4.9z"/>
  <radialGradient id="c" cx="145.6245" cy="18.4082" r="43.3798" gradientTransform="matrix(1 0 0 -1 91.5 492.3076)" gradientUnits="userSpaceOnUse">
    <stop offset=".2802" stop-color="#dc0308"/>
    <stop offset="1" stop-color="#910018"/>
  </radialGradient>
  <path fill="url(#c)" d="m223.3 414.05-12.031 6.103S222.951 446.95 196 491.399c0 0 5.6 2.101 16.8-4.899 0 0-11.2 30.1 10.5 47.25 21.7-17.15 10.5-47.25 10.5-47.25 11.2 7 16.8 4.899 16.8 4.899-26.95-44.449-15.267-71.246-15.267-71.246L223.3 414.05z"/>
  <radialGradient id="d" cx="145.6245" cy="18.4077" r="43.3795" gradientTransform="matrix(1 0 0 -1 91.5 492.3076)" gradientUnits="userSpaceOnUse">
    <stop offset=".2802" stop-color="#c10307"/>
    <stop offset="1" stop-color="#830016"/>
  </radialGradient>
  <path fill="url(#d)" d="M223.3 414.05v119.7c21.7-17.149 10.5-47.25 10.5-47.25 11.2 7 16.8 4.9 16.8 4.9-26.95-44.45-15.267-71.246-15.267-71.246L223.3 414.05z"/>
  <linearGradient id="e" x1="118.0781" x2="118.3092" y1="67.9189" y2="-25.6917" gradientTransform="matrix(1 0 0 -1 91.5 492.3076)" gradientUnits="userSpaceOnUse">
    <stop offset="0" stop-color="#870305"/>
    <stop offset=".4945" stop-color="#f20404"/>
    <stop offset="1" stop-color="#910015"/>
  </linearGradient>
  <path fill="url(#e)" d="M211.274 420.154s11.673 26.796-15.276 71.246c0 0 5.6 2.1 16.8-4.9 0 0-11.2 30.101 10.5 47.25v-119.7l-12.024 6.104z"/>
  <linearGradient id="f" x1="63.0586" x2="92.1505" y1="36.0576" y2="36.0576" gradientTransform="rotate(180 202.27245 245.1538)" gradientUnits="userSpaceOnUse">
    <stop offset=".3901" stop-color="#f20404"/>
    <stop offset="1" stop-color="#910015"/>
  </linearGradient>
  <path fill="url(#f)" d="M324.036 436.016s20.717 4.074 18.85 20.408c-1.867 16.333-20.28 20.045-30.487 11.879 0 0 6.563-.962 14.495-7.729s4.608-14.058-2.858-24.558z"/>
  <linearGradient id="g" x1="96.6938" x2="126.2131" y1="35.9233" y2="35.9233" gradientTransform="rotate(180 202.27245 245.1538)" gradientUnits="userSpaceOnUse">
    <stop offset=".3901" stop-color="#f20404"/>
    <stop offset=".8407" stop-color="#910015"/>
  </linearGradient>
  <path fill="url(#g)" d="M304.232 447.3c6.768 12.833 3.184 24.42 1.997 25.606s-4.761 5.475-9.405 5.595c2.7-5.982 5.074-12.535-5.426-27.469-10.5-14.933-13.066-20.766-13.066-20.766s19.133 4.201 25.9 17.034z"/>
  <radialGradient id="h" cx="142.0254" cy="21.21" r="12.0928" gradientTransform="rotate(180 202.27245 245.1538)" gradientUnits="userSpaceOnUse">
    <stop offset="0" stop-color="#d60405"/>
    <stop offset="1" stop-color="#f20404"/>
  </radialGradient>
  <path fill="url(#h)" d="M274.427 480.297s-.236 1.152-.936 1.403c-2.006-4.547-6.835-4.551-10.209-6.285-4.687-2.41-6.582-5.073-8.449-9.04-1.869-3.962-4.27-9.506-4.27-9.506 6.318 1.777 12.507 4.817 17.149 8.983 3.519 3.156 5.276 7.727 6.71 14.449l.005-.004z"/>
  <linearGradient id="i" x1="164.9512" x2="171.1041" y1="47.9844" y2="68.2422" gradientTransform="rotate(180 202.27245 245.1538)" gradientUnits="userSpaceOnUse">
    <stop offset="0" stop-color="#9c0406"/>
    <stop offset="1" stop-color="#b7020b"/>
  </linearGradient>
  <path fill="url(#i)" d="M254.063 481.25s-.116-4.782-4.551-8.633c-4.434-3.85-18.783-21.117-16.684-45.384 2.101-24.266 0 0 0 0s18.9 33.601 20.417 39.084c1.52 5.481 1.75 12.131.819 14.931"/>
  <radialGradient id="j" cx="119.8813" cy="1.1475" r="59.1279" gradientTransform="matrix(-1 -.08 .1 -1.25 411.209 471.8303)" gradientUnits="userSpaceOnUse">
    <stop offset="0" stop-color="#f20404"/>
    <stop offset="1" stop-color="#910015"/>
  </radialGradient>
  <path fill="url(#j)" d="M251.732 403.431s16.8 17.732 33.6 21.466c16.8 3.734 28.951 3.668 35.468 3.268 15.387-.946 29.921 9.144 29.822 24.529-.083 12.963-9.043 24.64-22.809 24.64-12.3 0-14.963-7.003-15.414-9.036 2.002 1.62 6.284 3.32 11.798 3.32 8.659 0 16.415-7.852 16.396-17.001-.019-9.344-8.142-16.313-15.477-17.47 2.938.904 8.073 3.239 8.073 11.144 0 4.848-3.01 10.236-8.028 10.236-3.598 0-5.642-1.429-5.642-1.429 4.004-.664 7.973-8.057 2.408-13.412-6.069-5.83-8.708-1.987-19.558-4.438 0 0 14.7 9.383 13.649 19.883 0 0-2.705-3.04-5.292-3.348 1.536 6.19-1.892 15.191-4.691 17.292.588-3.997 5.781-29.975-23.969-39.425 0 0 13.65 11.9 12.95 23.45s-9.067 13.03-9.067 13.03 5.567-25.98-15.782-34.38c0 0 1.75 4.55 2.45 8.399.699 3.851 3.85 7.351 3.85 7.351s-7.272 1.568-14.35-7.351c0 0-.631 4.189-3.782 4.945.007-1.666.28-5.291-6.37-9.491-6.252-3.949-4.833-8.518-4.833-11.404 0-2.743-3.357-6.294-6.459-5.034-4.263 1.729 2.892 23.436 15.492 29.035 12.6 5.601 21.35 14.351 18.2 28.351 0 0-3.851-14.7-22.4-21.7 3.68 6.207 7.549 16.031 2.1 22.4 0 0 1.4-10.5-3.85-16.45s-16.1-26.25-17.85-40.25l19.366-21.116v-.004z"/>
  <radialGradient id="k" cx="136.0854" cy="-2.0576" r="59.1287" gradientTransform="matrix(-1 -.08 .1 -1.25 411.209 471.8303)" gradientUnits="userSpaceOnUse">
    <stop offset="0" stop-color="#f20404"/>
    <stop offset="1" stop-color="#910015"/>
  </radialGradient>
  <path fill="url(#k)" d="M240.672 423.164c-4.263 1.729 2.892 23.437 15.491 29.036 12.6 5.601 21.35 14.351 18.2 28.351 0 0-3.851-14.7-22.4-21.7 3.681 6.207 7.55 16.031 2.101 22.399 0 0 1.399-10.5-3.851-16.449-5.25-5.95-16.1-26.25-17.85-40.25l8.309-1.39v.003z"/>
  <radialGradient id="l" cx="132.3926" cy="2.8062" r="10.7179" gradientTransform="matrix(-3.1879 -.3022 .2163 -2.2809 671.2495 473.1456)" gradientUnits="userSpaceOnUse">
    <stop offset="0" stop-color="#b80304"/>
    <stop offset="1" stop-color="#f20404"/>
  </radialGradient>
  <path fill="url(#l)" d="M262.113 444.15s-.633 4.188-3.784 4.943c.013-1.672.287-5.291-6.366-9.493-6.251-3.949-4.834-8.51-4.834-11.396 0-2.744-3.352-6.291-6.453-5.031 3.264-2.773 10.328-2.11 14.248 3.823 3.353 5.082 3.913 12.846 7.188 17.157l.001-.003z"/>
  <linearGradient id="m" x1="13.061" x2="42.1531" y1="36.0576" y2="36.0576" gradientTransform="matrix(1 0 0 -1 92.0513 490.3076)" gradientUnits="userSpaceOnUse">
    <stop offset=".3901" stop-color="#f20404"/>
    <stop offset="1" stop-color="#910015"/>
  </linearGradient>
  <path fill="url(#m)" d="M122.564 436.016s-20.717 4.074-18.851 20.408c1.867 16.333 20.28 20.045 30.488 11.879 0 0-6.563-.962-14.496-7.729s-4.608-14.058 2.859-24.558z"/>
  <linearGradient id="n" x1="46.6963" x2="76.2157" y1="35.9233" y2="35.9233" gradientTransform="matrix(1 0 0 -1 92.0513 490.3076)" gradientUnits="userSpaceOnUse">
    <stop offset=".3901" stop-color="#f20404"/>
    <stop offset=".8407" stop-color="#910015"/>
  </linearGradient>
  <path fill="url(#n)" d="M142.367 447.3c-6.767 12.833-3.184 24.42-1.997 25.606s4.761 5.475 9.405 5.595c-2.7-5.982-5.075-12.535 5.425-27.469 10.5-14.933 13.067-20.766 13.067-20.766s-19.133 4.201-25.9 17.034z"/>
  <radialGradient id="o" cx="92.0288" cy="21.21" r="12.0928" gradientTransform="matrix(1 0 0 -1 92.0513 490.3076)" gradientUnits="userSpaceOnUse">
    <stop offset="0" stop-color="#d60405"/>
    <stop offset="1" stop-color="#f20404"/>
  </radialGradient>
  <path fill="url(#o)" d="M172.173 480.297s.236 1.152.935 1.403c2.006-4.547 6.835-4.551 10.208-6.285 4.687-2.41 6.583-5.073 8.45-9.04 1.869-3.962 4.27-9.506 4.27-9.506-6.319 1.777-12.507 4.817-17.15 8.983-3.519 3.156-5.276 7.727-6.71 14.449l-.003-.004z"/>
  <linearGradient id="p" x1="114.9541" x2="121.1071" y1="47.9854" y2="68.2432" gradientTransform="matrix(1 0 0 -1 92.0513 490.3076)" gradientUnits="userSpaceOnUse">
    <stop offset="0" stop-color="#9c0406"/>
    <stop offset="1" stop-color="#b7020b"/>
  </linearGradient>
  <path fill="url(#p)" d="M192.536 481.25s.116-4.782 4.55-8.633c4.434-3.85 18.784-21.117 16.684-45.384-2.1-24.266 0 0 0 0s-18.9 33.601-20.417 39.084c-1.519 5.481-1.75 12.131-.819 14.931"/>
  <radialGradient id="q" cx="70.2017" cy="4.3267" r="59.1279" gradientTransform="matrix(1 -.08 -.1 -1.25 85.3876 471.8303)" gradientUnits="userSpaceOnUse">
    <stop offset="0" stop-color="#f20404"/>
    <stop offset="1" stop-color="#910015"/>
  </radialGradient>
  <path fill="url(#q)" d="M194.867 403.431s-16.8 17.732-33.6 21.466c-16.8 3.734-28.951 3.668-35.467 3.268-15.387-.946-29.922 9.144-29.823 24.529.083 12.963 9.043 24.64 22.808 24.64 12.3 0 14.963-7.003 15.415-9.036-2.002 1.62-6.285 3.32-11.798 3.32-8.659 0-16.415-7.852-16.396-17.001.019-9.344 8.142-16.313 15.477-17.47-2.938.904-8.074 3.239-8.074 11.144 0 4.848 3.01 10.236 8.028 10.236 3.598 0 5.642-1.429 5.642-1.429-4.004-.664-7.973-8.057-2.408-13.412 6.069-5.83 8.708-1.987 19.558-4.438 0 0-14.7 9.383-13.65 19.883 0 0 2.705-3.04 5.292-3.348-1.537 6.19 1.891 15.191 4.691 17.292-.588-3.997-5.782-29.975 23.968-39.425 0 0-13.65 11.9-12.95 23.45s9.067 13.03 9.067 13.03-5.567-25.98 15.783-34.38c0 0-1.75 4.55-2.45 8.399-.7 3.851-3.85 7.351-3.85 7.351s7.273 1.568 14.35-7.351c0 0 .631 4.189 3.783 4.945-.007-1.666-.28-5.291 6.37-9.491 6.251-3.949 4.833-8.518 4.833-11.404 0-2.743 3.357-6.294 6.458-5.034 4.263 1.729-2.891 23.436-15.491 29.035-12.6 5.601-21.35 14.351-18.2 28.351 0 0 3.85-14.7 22.4-21.7-3.68 6.207-7.55 16.031-2.1 22.4 0 0-1.4-10.5 3.85-16.45s16.1-26.25 17.85-40.25l-19.366-21.116v-.004z"/>
  <radialGradient id="r" cx="86.4067" cy="1.1211" r="59.1287" gradientTransform="matrix(1 -.08 -.1 -1.25 85.3876 471.8303)" gradientUnits="userSpaceOnUse">
    <stop offset="0" stop-color="#f20404"/>
    <stop offset="1" stop-color="#910015"/>
  </radialGradient>
  <path fill="url(#r)" d="M205.927 423.164c4.263 1.729-2.891 23.437-15.491 29.036-12.6 5.601-21.35 14.351-18.2 28.351 0 0 3.85-14.7 22.4-21.7-3.68 6.207-7.549 16.031-2.1 22.399 0 0-1.4-10.5 3.85-16.449 5.25-5.95 16.101-26.25 17.851-40.25l-8.31-1.39v.003z"/>
  <radialGradient id="s" cx="116.8486" cy="4.8662" r="10.7184" gradientTransform="matrix(3.1879 -.3022 -.2163 -2.2809 -174.6538 473.1456)" gradientUnits="userSpaceOnUse">
    <stop offset="0" stop-color="#b80304"/>
    <stop offset="1" stop-color="#f20404"/>
  </radialGradient>
  <path fill="url(#s)" d="M184.486 444.15s.633 4.188 3.784 4.943c-.012-1.672-.287-5.291 6.366-9.493 6.251-3.949 4.834-8.51 4.834-11.396 0-2.744 3.352-6.291 6.453-5.031-3.264-2.773-10.328-2.11-14.248 3.823-3.353 5.082-3.913 12.846-7.189 17.157v-.003z"/>
  <linearGradient id="t" x1="87.0742" x2="175.0363" y1="303.5601" y2="303.5601" gradientTransform="matrix(1 0 0 -1 91.9995 490.3076)" gradientUnits="userSpaceOnUse">
    <stop offset=".1154" stop-color="#f20404"/>
    <stop offset=".5038" stop-color="#930017"/>
    <stop offset=".9066" stop-color="#f20404"/>
  </linearGradient>
  <path fill="url(#t)" d="M223.3 18.9c-7 8.4-26.95 33.25-34.3 56.7-7.35 23.45-18.2 39.2 2.8 110.6 21 71.4 19.25 163.954 19.25 163.954l12.25 4.44 12.25-4.44S233.8 257.6 254.8 186.2s10.15-87.15 2.8-110.6c-7.35-23.45-27.3-48.3-34.3-56.7z"/>
  <radialGradient id="u" cx="51.917" cy="66.9229" r="16.4971" gradientTransform="matrix(1.8458 0 0 -1.8458 127.4774 521.3745)" gradientUnits="userSpaceOnUse">
    <stop offset="0" stop-color="#f30404"/>
    <stop offset=".5668" stop-color="#c8020d"/>
    <stop offset="1" stop-color="#860013"/>
  </radialGradient>
  <path fill="url(#u)" d="M253.756 397.848c0 16.817-13.634 30.45-30.45 30.45-16.817 0-30.45-13.634-30.45-30.45 0-16.817 13.634-30.45 30.45-30.45 16.817 0 30.45 13.635 30.45 30.45z"/>
  <linearGradient id="v" x1="-806.4487" x2="-671.503" y1="217.9189" y2="197.129" gradientTransform="rotate(180 -209.7163 245.1538)" gradientUnits="userSpaceOnUse">
    <stop offset="0" stop-color="#930018"/>
    <stop offset=".456" stop-color="#d90309"/>
  </linearGradient>
  <path fill="url(#v)" d="M337.638 192.633c-77.561 1.484-91.021 96.677-86.513 156.08h11.242c-3.455-35.439 14.375-88.879 54.099-88.879 11.937 0 21.105 7.395 21.109 19.293.005 25.438-44.445 32.836-44.647 62.825-.148 22.051 24.785 29.29 24.785 29.29l3.128-3.828c-.488-.392-.944-.786-1.4-1.181.956.489 1.817.945 2.516 1.355l7.263-4.878s-18.2-2.356-18.2-14c0-25.955 85.309-26.945 85.483-95.788.096-36.503-21.46-60.288-57.028-60.288-.618 0-1.226-.012-1.837 0v-.001z"/>
  <linearGradient id="w" x1="-792.2876" x2="-673.8611" y1="193.3101" y2="193.3101" gradientTransform="rotate(180 -209.7163 245.1538)" gradientUnits="userSpaceOnUse">
    <stop offset=".4286" stop-color="#930018"/>
    <stop offset="1" stop-color="#dc0308"/>
  </linearGradient>
  <path fill="url(#w)" d="M327.333 222.754c-55.485-.015-72.835 84.266-70.896 125.958h5.929c-3.402-34.889 13.832-87.213 52.262-88.837.606-.028 1.217-.044 1.838-.044 11.937 0 21.105 7.396 21.108 19.294.006 25.437-44.445 32.835-44.646 62.825-.148 22.052 24.784 29.291 24.784 29.291l3.128-3.828c-.488-.392-.943-.788-1.4-1.182-6.483-3.314-17.718-8.753-17.718-20.781 0-27.74 65.166-35.536 65.166-82.937 0-23.36-14.586-39.752-39.55-39.759h-.005z"/>
  <linearGradient id="x" x1="-744.4546" x2="-878.8539" y1="220.3232" y2="192.3023" gradientTransform="matrix(1 0 0 -1 916.0293 490.3076)" gradientUnits="userSpaceOnUse">
    <stop offset="0" stop-color="#930018"/>
    <stop offset=".456" stop-color="#d90309"/>
  </linearGradient>
  <path fill="url(#x)" d="M108.962 192.633c77.567 1.484 91.021 96.684 86.513 156.08h-11.243c3.455-35.439-14.375-88.879-54.098-88.879-11.937 0-21.106 7.395-21.109 19.293-.005 25.438 44.445 32.836 44.647 62.825.148 22.051-24.784 29.29-24.784 29.29l-3.128-3.828c.488-.392.944-.786 1.4-1.181-.957.489-1.817.945-2.516 1.355l-7.263-4.878s18.2-2.356 18.2-14c0-25.955-85.309-26.945-85.491-95.788-.095-36.503 21.46-60.288 57.028-60.288.619 0 1.227-.012 1.837 0l.007-.001z"/>
  <linearGradient id="y" x1="-740.6367" x2="-823.2152" y1="205.0972" y2="187.1072" gradientTransform="matrix(1 0 0 -1 916.0293 490.3076)" gradientUnits="userSpaceOnUse">
    <stop offset=".4286" stop-color="#930018"/>
    <stop offset="1" stop-color="#dc0308"/>
  </linearGradient>
  <path fill="url(#y)" d="M119.266 222.754c55.486-.015 72.835 84.266 70.896 125.958h-5.928c3.402-34.889-13.832-87.213-52.262-88.837-.607-.028-1.217-.044-1.838-.044-11.937 0-21.106 7.396-21.109 19.294-.005 25.437 44.445 32.835 44.647 62.825.148 22.052-24.784 29.291-24.784 29.291l-3.128-3.828c.488-.392.944-.788 1.4-1.182 6.484-3.314 17.718-8.753 17.718-20.781 0-27.74-65.166-35.536-65.166-82.937 0-23.36 14.586-39.752 39.55-39.759h.004z"/>
  <radialGradient id="z" cx="-765.3662" cy="116.8335" r="36.327" gradientTransform="rotate(180 -210.0166 245.4966)" gradientUnits="userSpaceOnUse">
    <stop offset=".2802" stop-color="#dc0308"/>
    <stop offset="1" stop-color="#930018"/>
  </radialGradient>
  <path fill="url(#z)" d="M324.127 359.226s-1.632-3.5-3.966-1.634c-2.334 1.867-7.233 8.401-7.7 12.367-.466 3.966 2.101 1.866 2.101 6.532 0 4.668 3.967 4.668 6.533 2.567 0 0 .7 4.199-.7 6.066-1.399 1.866-1.4 5.834.933 9.334 2.334 3.5.234 10.267-7 15.4 0 0 5.368 3.032 10.734.932s8.867-7.232 10.733-14.232c0 0 1.866 3.5.933 7.7 0 0 4.899-1.167 6.3-10.268 1.4-9.1-5.6-13.766-5.6-13.766s4.199-1.868 6.3 2.1c2.1 3.966 1.866 4.433 4.2 5.6 2.333 1.167 3.268 2.101 2.1 6.066-1.166 3.968-2.332 6.067-2.332 6.067s4.199.467 8.632-4.667c0 0-1.166 6.3 4.9 12.367 6.068 6.066 8.168 5.833 8.168 5.833s4.432-15.167 1.166-20.301c-3.266-5.132-5.134-5.366-5.134-5.366s10.734-3.033 12.834-6.533c0 0-9.334.701-17.733-8.866-8.4-9.566-11.433-11.9-15.866-10.034 0 0 7-6.299 6.3-16.566 0 0-2.335 2.568-7.7 2.101 0 0 3.5-3.034 1.4-7.934-2.101-4.9-9.801-5.366-9.801-5.366s8.167 7.934.466 14.934c-7.701 7.001-11.201 8.166-11.201 9.567z"/>
  <radialGradient id="A" cx="-815.3638" cy="116.8335" r="36.3268" gradientTransform="matrix(1 0 0 -1 916.6299 490.9932)" gradientUnits="userSpaceOnUse">
    <stop offset=".2802" stop-color="#dc0308"/>
    <stop offset="1" stop-color="#930018"/>
  </radialGradient>
  <path fill="url(#A)" d="M122.472 359.226s1.632-3.5 3.966-1.634c2.333 1.867 7.233 8.401 7.7 12.367s-2.1 1.866-2.1 6.532c0 4.668-3.967 4.668-6.534 2.567 0 0-.7 4.199.7 6.066 1.4 1.866 1.4 5.834-.933 9.334s-.234 10.267 7 15.4c0 0-5.368 3.032-10.734.932s-8.867-7.232-10.733-14.232c0 0-1.866 3.5-.933 7.7 0 0-4.9-1.167-6.3-10.268-1.4-9.1 5.6-13.766 5.6-13.766s-4.2-1.868-6.3 2.1c-2.1 3.966-1.867 4.433-4.2 5.6s-3.267 2.101-2.1 6.066c1.166 3.968 2.332 6.067 2.332 6.067s-4.199.467-8.632-4.667c0 0 1.167 6.3-4.9 12.367-6.067 6.066-8.167 5.833-8.167 5.833s-4.433-15.167-1.167-20.301c3.267-5.132 5.134-5.366 5.134-5.366s-10.733-3.033-12.833-6.533c0 0 9.333.701 17.734-8.866 8.4-9.566 11.432-11.9 15.866-10.034 0 0-7-6.299-6.3-16.566 0 0 2.334 2.568 7.7 2.101 0 0-3.5-3.034-1.4-7.934s9.8-5.366 9.8-5.366-8.166 7.934-.466 14.934c7.7 7.001 11.2 8.166 11.2 9.567z"/>
  <linearGradient id="B" x1="33.8735" x2="62.8047" y1="132.582" y2="311.3133" gradientTransform="rotate(180 101.95655 245.1538)" gradientUnits="userSpaceOnUse">
    <stop offset=".3187" stop-color="#930018"/>
    <stop offset=".8132" stop-color="#dc0308"/>
  </linearGradient>
  <path fill="url(#B)" d="M206.301 351.344h-6.548s3.886-34.971-6.155-84c-10.228-49.94-39.667-109.2-81.2-157.731-41.533-48.533-32.2-37.8-32.2-37.8s20.337 16.713 28.933 26.6c14.487 16.663 34.891 37.361 57.4 77.469 21.621 38.524 33.279 81.389 38.088 125.153 2.208 20.088 2.261 35.566 1.683 50.315v-.006z"/>
  <linearGradient id="C" x1="-17.6104" x2="-9.2106" y1="431.0874" y2="452.7903" gradientTransform="matrix(1 0 0 -1 91.1313 490.6299)" gradientUnits="userSpaceOnUse">
    <stop offset=".2912" stop-color="#e80406"/>
    <stop offset="1" stop-color="#930012"/>
  </linearGradient>
  <path fill="url(#C)" d="m88.862 77.924-36.922-42s12.6-.525 21 11.55c0 0-.875-10.325 9.1-14.35 0 0-1.225 7.175 2.275 11.025s7.7 7.35 7.525 15.4c-.175 8.05-3.85 7.525 3.15 15.05s-6.125 3.325-6.125 3.325h-.003z"/>
  <radialGradient id="D" cx="-398.4697" cy="299.8853" r="14.1878" gradientTransform="matrix(1 0 0 -1 555.3154 490.3076)" gradientUnits="userSpaceOnUse">
    <stop offset="0" stop-color="#f30404"/>
    <stop offset="1" stop-color="#930012"/>
  </radialGradient>
  <path fill="url(#D)" d="M173.821 197.4s-5.25-17.675-22.05-17.675l4.725 5.075s-10.675-4.025-16.625 6.125c0 0 9.1-3.15 17.15 4.025 8.05 7.175 13.3 8.225 16.8 2.45z"/>
  <radialGradient id="E" cx="-378.1719" cy="308.1284" r="12.8884" gradientTransform="matrix(1 0 0 -1 555.3154 490.3076)" gradientUnits="userSpaceOnUse">
    <stop offset="0" stop-color="#f30404"/>
    <stop offset="1" stop-color="#930012"/>
  </radialGradient>
  <path fill="url(#E)" d="M187.296 167.125s-8.4 5.25-7 17.85-4.9 15.4-9.45 9.1c-4.55-6.3-5.95-17.15.7-23.8 0 0 .175 6.825 1.225 5.95s2.275-10.15 14.525-9.1z"/>
  <radialGradient id="F" cx="-404.0889" cy="350.2124" r="13.5894" gradientTransform="matrix(1 0 0 -1 555.3154 490.3076)" gradientUnits="userSpaceOnUse">
    <stop offset="0" stop-color="#f30404"/>
    <stop offset="1" stop-color="#930012"/>
  </radialGradient>
  <path fill="url(#F)" d="M158.071 122.675s-5.95 5.425-4.375 12.6c1.575 7.175 7.175 6.125 5.25 14.525-1.925 8.4-10.325 7.7-10.325 7.7s-8.75-11.375-4.2-21.35c4.55-9.975 10.325-12.25 13.65-13.475z"/>
  <radialGradient id="G" cx="-420.4321" cy="338.2437" r="13.7451" gradientTransform="matrix(1 0 0 -1 555.3154 490.3076)" gradientUnits="userSpaceOnUse">
    <stop offset="0" stop-color="#f30404"/>
    <stop offset="1" stop-color="#930012"/>
  </radialGradient>
  <path fill="url(#G)" d="M151.771 157.85s-5.425-15.925-15.925-15.4c-10.5.525-15.225 4.375-17.85 7.875 0 0 8.05-3.15 13.3 1.925s4.9 14.875 20.475 5.6z"/>
  <radialGradient id="H" cx="-440.5664" cy="426.8647" r="18.4369" gradientTransform="matrix(1 0 0 -1 553.6953 490.6299)" gradientUnits="userSpaceOnUse">
    <stop offset="0" stop-color="#f30404"/>
    <stop offset="1" stop-color="#930012"/>
  </radialGradient>
  <path fill="url(#H)" d="M94.462 73.549s2.1-10.325 8.75-15.925c6.65-5.6 4.55-5.775 4.025-10.15 0 0 7.35.7 6.825 10.5 0 0 19.425-7.875 19.425 10.85 0 0-8.75-4.025-15.225 1.925s-6.65 10.325-18.375 9.1c-11.725-1.225-5.425-6.3-5.425-6.3z"/>
  <radialGradient id="I" cx="-480.6729" cy="387.4604" r="18.5531" gradientTransform="matrix(1 0 0 -1 553.6953 490.6299)" gradientUnits="userSpaceOnUse">
    <stop offset="0" stop-color="#f30404"/>
    <stop offset="1" stop-color="#930012"/>
  </radialGradient>
  <path fill="url(#I)" d="M87.987 92.974s.175 4.55-1.925 7.35-16.1 9.625-10.85 21.875c0 0-8.225 2.975-11.2-6.475-2.975-9.45 1.925-13.125 1.925-13.125s-8.925.7-10.5-7.525c0 0 4.55 1.575 7.7-1.225 3.15-2.8 9.625-9.975 21.175-10.15 11.55-.175 3.675 9.275 3.675 9.275z"/>
  <linearGradient id="J" x1="-499.7637" x2="-481.0389" y1="455.4292" y2="403.9828" gradientTransform="matrix(1 0 0 -1 553.6953 490.6299)" gradientUnits="userSpaceOnUse">
    <stop offset="0" stop-color="#930012"/>
    <stop offset="1" stop-color="#f30404"/>
  </linearGradient>
  <path fill="url(#J)" d="M88.862 77.924 51.94 35.926s-1.925 11.725 8.925 22.575c0 0-9.8-1.575-15.225 7.175 0 0 6.475-.35 11.2 4.2s8.75 9.1 18.025 8.925 10.15 5.425 10.15 5.425l3.85-6.3-.003-.002z"/>
  <radialGradient id="K" cx="-378.8901" cy="286.1099" r="8.3984" gradientTransform="matrix(1 0 0 -1 555.3154 490.3076)" gradientUnits="userSpaceOnUse">
    <stop offset="0" stop-color="#f30404"/>
    <stop offset="1" stop-color="#930012"/>
  </radialGradient>
  <path fill="url(#K)" d="M167.801 207.417c1.447 3.88 6.483 5.585 11.245 3.807 4.764-1.777 7.452-6.364 6.003-10.245-1.447-3.881-6.483-5.585-11.246-3.808-4.762 1.777-7.451 6.365-6.002 10.246z"/>
  <radialGradient id="L" cx="-400.3076" cy="328.0347" r="7.3828" gradientTransform="matrix(1 0 0 -1 555.3154 490.3076)" gradientUnits="userSpaceOnUse">
    <stop offset="0" stop-color="#f30404"/>
    <stop offset="1" stop-color="#930012"/>
  </radialGradient>
  <path fill="url(#L)" d="M147.543 165.816c1.509 3.182 6.077 4.176 10.198 2.218 4.124-1.957 6.242-6.123 4.731-9.305-1.51-3.182-6.078-4.175-10.2-2.218-4.122 1.956-6.24 6.123-4.729 9.305z"/>
  <radialGradient id="M" cx="-449.896" cy="394.9683" r="6.3859" gradientTransform="matrix(1 0 0 -1 553.6953 490.6299)" gradientUnits="userSpaceOnUse">
    <stop offset="0" stop-color="#f30404"/>
    <stop offset="1" stop-color="#930012"/>
  </radialGradient>
  <path fill="url(#M)" d="M98.277 100.429c1.92 2.226 5.95 1.896 9-.737 3.048-2.634 3.965-6.571 2.046-8.796-1.921-2.226-5.952-1.895-9.002.738-3.05 2.632-3.965 6.569-2.044 8.795z"/>
  <radialGradient id="N" cx="-459.2354" cy="405.6479" r="10.9084" gradientTransform="matrix(1 0 0 -1 553.7012 490.6299)" gradientUnits="userSpaceOnUse">
    <stop offset="0" stop-color="#f30404"/>
    <stop offset="1" stop-color="#930012"/>
  </radialGradient>
  <ellipse cx="94.466" cy="84.982" fill="url(#N)" rx="10.967" ry="10.85"/>
  <linearGradient id="O" x1="-16.124" x2="12.8072" y1="132.5811" y2="311.3123" gradientTransform="matrix(1 0 0 -1 292.6836 490.3076)" gradientUnits="userSpaceOnUse">
    <stop offset=".3187" stop-color="#930018"/>
    <stop offset=".8132" stop-color="#dc0308"/>
  </linearGradient>
  <path fill="url(#O)" d="M240.298 351.344h6.549s-3.887-34.971 6.154-84c10.229-49.94 39.667-109.2 81.2-157.731 41.533-48.533 32.2-37.8 32.2-37.8s-20.337 16.713-28.933 26.6c-14.488 16.663-34.891 37.361-57.4 77.469-21.621 38.524-33.278 81.389-38.088 125.153-2.207 20.088-2.262 35.566-1.683 50.315v-.006z"/>
  <linearGradient id="P" x1="32.3862" x2="40.7862" y1="431.0874" y2="452.7908" gradientTransform="rotate(180 202.7324 245.31495)" gradientUnits="userSpaceOnUse">
    <stop offset=".2912" stop-color="#e80406"/>
    <stop offset="1" stop-color="#930012"/>
  </linearGradient>
  <path fill="url(#P)" d="m357.737 77.924 36.923-42s-12.601-.525-21 11.55c0 0 .875-10.325-9.101-14.35 0 0 1.226 7.175-2.274 11.025s-7.7 7.35-7.525 15.4 3.85 7.525-3.15 15.05 6.125 3.325 6.125 3.325h.002z"/>
  <radialGradient id="Q" cx="-348.4722" cy="299.8853" r="14.1878" gradientTransform="rotate(180 -29.3594 245.1538)" gradientUnits="userSpaceOnUse">
    <stop offset="0" stop-color="#f30404"/>
    <stop offset="1" stop-color="#930012"/>
  </radialGradient>
  <path fill="url(#Q)" d="M272.778 197.4s5.25-17.675 22.05-17.675l-4.725 5.075s10.675-4.025 16.625 6.125c0 0-9.1-3.15-17.15 4.025-8.05 7.175-13.3 8.225-16.8 2.45z"/>
  <radialGradient id="R" cx="-328.1743" cy="308.1284" r="12.8882" gradientTransform="rotate(180 -29.3594 245.1538)" gradientUnits="userSpaceOnUse">
    <stop offset="0" stop-color="#f30404"/>
    <stop offset="1" stop-color="#930012"/>
  </radialGradient>
  <path fill="url(#R)" d="M259.304 167.125s8.399 5.25 7 17.85c-1.4 12.6 4.899 15.4 9.45 9.1 4.55-6.3 5.949-17.15-.7-23.8 0 0-.175 6.825-1.226 5.95-1.05-.875-2.274-10.15-14.524-9.1z"/>
  <radialGradient id="S" cx="-354.0918" cy="350.2124" r="13.5895" gradientTransform="rotate(180 -29.3594 245.1538)" gradientUnits="userSpaceOnUse">
    <stop offset="0" stop-color="#f30404"/>
    <stop offset="1" stop-color="#930012"/>
  </radialGradient>
  <path fill="url(#S)" d="M288.528 122.675s5.95 5.425 4.375 12.6c-1.575 7.175-7.175 6.125-5.25 14.525 1.925 8.4 10.325 7.7 10.325 7.7s8.75-11.375 4.2-21.35-10.324-12.25-13.65-13.475z"/>
  <radialGradient id="T" cx="-370.4346" cy="338.2437" r="13.7451" gradientTransform="rotate(180 -29.3594 245.1538)" gradientUnits="userSpaceOnUse">
    <stop offset="0" stop-color="#f30404"/>
    <stop offset="1" stop-color="#930012"/>
  </radialGradient>
  <path fill="url(#T)" d="M294.828 157.85s5.426-15.925 15.926-15.4c10.5.525 15.225 4.375 17.85 7.875 0 0-8.05-3.15-13.3 1.925s-4.901 14.875-20.476 5.6z"/>
  <radialGradient id="U" cx="-390.5698" cy="426.8647" r="18.4369" gradientTransform="rotate(180 -28.5498 245.31495)" gradientUnits="userSpaceOnUse">
    <stop offset="0" stop-color="#f30404"/>
    <stop offset="1" stop-color="#930012"/>
  </radialGradient>
  <path fill="url(#U)" d="M352.138 73.549s-2.101-10.325-8.75-15.925c-6.65-5.6-4.55-5.775-4.025-10.15 0 0-7.35.7-6.825 10.5 0 0-19.425-7.875-19.425 10.85 0 0 8.75-4.025 15.226 1.925 6.475 5.95 6.649 10.325 18.375 9.1 11.724-1.225 5.424-6.3 5.424-6.3z"/>
  <radialGradient id="V" cx="-430.6763" cy="387.4604" r="18.5531" gradientTransform="rotate(180 -28.5498 245.31495)" gradientUnits="userSpaceOnUse">
    <stop offset="0" stop-color="#f30404"/>
    <stop offset="1" stop-color="#930012"/>
  </radialGradient>
  <path fill="url(#V)" d="M358.612 92.974s-.175 4.55 1.925 7.35c2.101 2.8 16.101 9.625 10.851 21.875 0 0 8.225 2.975 11.2-6.475 2.975-9.45-1.926-13.125-1.926-13.125s8.926.7 10.5-7.525c0 0-4.55 1.575-7.699-1.225-3.15-2.8-9.625-9.975-21.176-10.15-11.55-.175-3.675 9.275-3.675 9.275z"/>
  <linearGradient id="W" x1="-449.7681" x2="-431.043" y1="455.4282" y2="403.9811" gradientTransform="rotate(180 -28.5498 245.31495)" gradientUnits="userSpaceOnUse">
    <stop offset="0" stop-color="#930012"/>
    <stop offset="1" stop-color="#f30404"/>
  </linearGradient>
  <path fill="url(#W)" d="m357.737 77.924 36.923-41.998s1.925 11.725-8.926 22.575c0 0 9.801-1.575 15.226 7.175 0 0-6.476-.35-11.2 4.2-4.725 4.55-8.75 9.1-18.025 8.925-9.274-.175-10.149 5.425-10.149 5.425l-3.851-6.3.002-.002z"/>
  <radialGradient id="X" cx="-328.8926" cy="286.1099" r="8.3984" gradientTransform="rotate(180 -29.3594 245.1538)" gradientUnits="userSpaceOnUse">
    <stop offset="0" stop-color="#f30404"/>
    <stop offset="1" stop-color="#930012"/>
  </radialGradient>
  <path fill="url(#X)" d="M278.798 207.417c-1.447 3.88-6.482 5.585-11.245 3.807-4.765-1.777-7.452-6.364-6.003-10.245 1.447-3.881 6.483-5.585 11.246-3.808s7.451 6.365 6.002 10.246z"/>
  <radialGradient id="Y" cx="-350.3105" cy="328.0347" r="7.3828" gradientTransform="rotate(180 -29.3594 245.1538)" gradientUnits="userSpaceOnUse">
    <stop offset="0" stop-color="#f30404"/>
    <stop offset="1" stop-color="#930012"/>
  </radialGradient>
  <path fill="url(#Y)" d="M299.057 165.816c-1.51 3.182-6.077 4.176-10.198 2.218-4.124-1.957-6.242-6.123-4.731-9.305 1.51-3.182 6.077-4.175 10.2-2.218 4.121 1.956 6.239 6.123 4.729 9.305z"/>
  <radialGradient id="Z" cx="-399.8994" cy="394.9683" r="6.3856" gradientTransform="rotate(180 -28.5498 245.31495)" gradientUnits="userSpaceOnUse">
    <stop offset="0" stop-color="#f30404"/>
    <stop offset="1" stop-color="#930012"/>
  </radialGradient>
  <path fill="url(#Z)" d="M348.322 100.429c-1.92 2.226-5.95 1.896-9.001-.737-3.047-2.634-3.965-6.571-2.045-8.796 1.921-2.226 5.951-1.895 9.001.738 3.05 2.632 3.966 6.569 2.045 8.795z"/>
  <radialGradient id="aa" cx="-409.2383" cy="405.6479" r="10.9084" gradientTransform="rotate(180 -28.55225 245.31495)" gradientUnits="userSpaceOnUse">
    <stop offset="0" stop-color="#f30404"/>
    <stop offset="1" stop-color="#930012"/>
  </radialGradient>
  <ellipse cx="352.134" cy="84.982" fill="url(#aa)" rx="10.967" ry="10.85"/>
  <linearGradient id="ab" x1="131.6313" x2="131.6313" y1="145.6768" y2="106.4763" gradientTransform="matrix(1 0 0 -1 91.667 490.3076)" gradientUnits="userSpaceOnUse">
    <stop offset="0" stop-color="#930017"/>
    <stop offset=".9297" stop-color="#f20404"/>
  </linearGradient>
  <path fill="url(#ab)" d="M284.198 364.581c0 10.89-8.802 19.717-19.656 19.717h-82.488c-10.857 0-19.656-8.827-19.656-19.717s8.799-19.717 19.656-19.717h82.488c10.854 0 19.656 8.827 19.656 19.717z"/>
</svg>